<mxfile host="app.diagrams.net" modified="2022-05-21T13:58:10.954Z" agent="5.0 (X11)" etag="CKGyFhYH9uA8dP5-bDPL" version="18.0.6" type="github">
  <diagram id="BKyIBWXtHGFlfNe0NvQe" name="Page-1">
    <mxGraphModel dx="3231" dy="1087" grid="1" gridSize="10" guides="1" tooltips="1" connect="1" arrows="1" fold="1" page="1" pageScale="1" pageWidth="1200" pageHeight="1920" math="0" shadow="0">
      <root>
        <mxCell id="0" />
        <mxCell id="1" parent="0" />
        <mxCell id="8CGCrLb8g6kRV5iT2Z4M-1" value="&lt;span id=&quot;page83R_mcid0&quot; class=&quot;markedContent&quot;&gt;&lt;span dir=&quot;ltr&quot; role=&quot;presentation&quot; style=&quot;left: 432.062px; top: 975.071px; font-size: 17.2154px; font-family: monospace; transform: scaleX(0.999713);&quot;&gt;gg&lt;/span&gt;&lt;span dir=&quot;ltr&quot; role=&quot;presentation&quot; style=&quot;left: 452.79px; top: 975.071px; font-size: 17.2154px; font-family: monospace;&quot;&gt; &lt;/span&gt;&lt;span dir=&quot;ltr&quot; role=&quot;presentation&quot; style=&quot;left: 582.403px; top: 971.772px; font-size: 21.5191px; font-family: sans-serif; transform: scaleX(1.00714);&quot;&gt;Go to the top of the file&lt;/span&gt;&lt;br role=&quot;presentation&quot;&gt;&lt;span dir=&quot;ltr&quot; role=&quot;presentation&quot; style=&quot;left: 432.062px; top: 1005.2px; font-size: 17.2154px; font-family: monospace;&quot;&gt;G&lt;/span&gt;&lt;span dir=&quot;ltr&quot; role=&quot;presentation&quot; style=&quot;left: 442.426px; top: 1005.2px; font-size: 17.2154px; font-family: monospace;&quot;&gt; &lt;/span&gt;&lt;span dir=&quot;ltr&quot; role=&quot;presentation&quot; style=&quot;left: 582.403px; top: 1001.9px; font-size: 21.5191px; font-family: sans-serif; transform: scaleX(1.0042);&quot;&gt;Go to the bottom of the file&lt;/span&gt;&lt;br role=&quot;presentation&quot;&gt;&lt;span dir=&quot;ltr&quot; role=&quot;presentation&quot; style=&quot;left: 432.062px; top: 1035.33px; font-size: 17.2154px; font-family: monospace;&quot;&gt;{&lt;/span&gt;&lt;span dir=&quot;ltr&quot; role=&quot;presentation&quot; style=&quot;left: 442.426px; top: 1035.33px; font-size: 17.2154px; font-family: monospace;&quot;&gt; &lt;/span&gt;&lt;span dir=&quot;ltr&quot; role=&quot;presentation&quot; style=&quot;left: 582.403px; top: 1032.03px; font-size: 21.5191px; font-family: sans-serif; transform: scaleX(1.02109);&quot;&gt;Go to the beginning of current paragraph&lt;/span&gt;&lt;br role=&quot;presentation&quot;&gt;&lt;span dir=&quot;ltr&quot; role=&quot;presentation&quot; style=&quot;left: 432.062px; top: 1065.45px; font-size: 17.2154px; font-family: monospace;&quot;&gt;}&lt;/span&gt;&lt;span dir=&quot;ltr&quot; role=&quot;presentation&quot; style=&quot;left: 442.426px; top: 1065.45px; font-size: 17.2154px; font-family: monospace;&quot;&gt; &lt;/span&gt;&lt;span dir=&quot;ltr&quot; role=&quot;presentation&quot; style=&quot;left: 582.403px; top: 1062.15px; font-size: 21.5191px; font-family: sans-serif; transform: scaleX(1.01819);&quot;&gt;Go to the end of current paragraph&lt;/span&gt;&lt;br role=&quot;presentation&quot;&gt;&lt;span dir=&quot;ltr&quot; role=&quot;presentation&quot; style=&quot;left: 432.062px; top: 1095.58px; font-size: 17.2154px; font-family: monospace;&quot;&gt;%&lt;/span&gt;&lt;span dir=&quot;ltr&quot; role=&quot;presentation&quot; style=&quot;left: 442.426px; top: 1095.58px; font-size: 17.2154px; font-family: monospace;&quot;&gt; &lt;/span&gt;&lt;span dir=&quot;ltr&quot; role=&quot;presentation&quot; style=&quot;left: 582.403px; top: 1092.28px; font-size: 21.5191px; font-family: sans-serif; transform: scaleX(1.00951);&quot;&gt;Go to the matching pair of (), [], {}&lt;/span&gt;&lt;br role=&quot;presentation&quot;&gt;&lt;span dir=&quot;ltr&quot; role=&quot;presentation&quot; style=&quot;left: 432.062px; top: 1155.83px; font-size: 17.2154px; font-family: monospace; transform: scaleX(0.999713);&quot;&gt;:NUM&lt;/span&gt;&lt;span dir=&quot;ltr&quot; role=&quot;presentation&quot; style=&quot;left: 473.517px; top: 1155.83px; font-size: 17.2154px; font-family: monospace;&quot;&gt; &lt;/span&gt;&lt;span dir=&quot;ltr&quot; role=&quot;presentation&quot; style=&quot;left: 582.403px; top: 1152.53px; font-size: 21.5191px; font-family: sans-serif; transform: scaleX(1.0624);&quot;&gt;Go to line NUM.&lt;/span&gt;&lt;span dir=&quot;ltr&quot; role=&quot;presentation&quot; style=&quot;left: 760.904px; top: 1152.53px; font-size: 21.5191px; font-family: sans-serif;&quot;&gt; &lt;/span&gt;&lt;span dir=&quot;ltr&quot; role=&quot;presentation&quot; style=&quot;left: 767.748px; top: 1155.83px; font-size: 17.2154px; font-family: monospace; transform: scaleX(0.999713);&quot;&gt;:28&lt;/span&gt;&lt;span dir=&quot;ltr&quot; role=&quot;presentation&quot; style=&quot;left: 798.839px; top: 1155.83px; font-size: 17.2154px; font-family: monospace;&quot;&gt; &lt;/span&gt;&lt;span dir=&quot;ltr&quot; role=&quot;presentation&quot; style=&quot;left: 805.682px; top: 1152.53px; font-size: 21.5191px; font-family: sans-serif; transform: scaleX(1.01075);&quot;&gt;jumps to line 28&lt;/span&gt;&lt;/span&gt;&lt;div style=&quot;font-size: 20px;&quot;&gt;&lt;font style=&quot;font-size: 20px;&quot;&gt;&lt;span id=&quot;page80R_mcid0&quot; class=&quot;markedContent&quot;&gt;&lt;span dir=&quot;ltr&quot; role=&quot;presentation&quot; style=&quot;left: 501.065px; top: 930.726px;&quot;&gt;w&lt;/span&gt;&lt;span dir=&quot;ltr&quot; role=&quot;presentation&quot; style=&quot;left: 511.429px; top: 930.726px;&quot;&gt; - &lt;/span&gt;&lt;span dir=&quot;ltr&quot; role=&quot;presentation&quot; style=&quot;left: 574.171px; top: 927.427px; transform: scaleX(1.00537);&quot;&gt;Go to the start of the next&lt;/span&gt;&lt;span dir=&quot;ltr&quot; role=&quot;presentation&quot; style=&quot;left: 857.234px; top: 927.427px;&quot;&gt; &lt;/span&gt;&lt;span dir=&quot;ltr&quot; role=&quot;presentation&quot; style=&quot;left: 864.077px; top: 927.427px;&quot;&gt;w&lt;/span&gt;&lt;span dir=&quot;ltr&quot; role=&quot;presentation&quot; style=&quot;left: 882.605px; top: 927.427px; transform: scaleX(1.04902);&quot;&gt;ord&lt;/span&gt;&lt;br role=&quot;presentation&quot;&gt;&lt;span dir=&quot;ltr&quot; role=&quot;presentation&quot; style=&quot;left: 501.065px; top: 960.854px;&quot;&gt;W&lt;/span&gt;&lt;span dir=&quot;ltr&quot; role=&quot;presentation&quot; style=&quot;left: 511.429px; top: 960.854px;&quot;&gt; - &lt;/span&gt;&lt;span dir=&quot;ltr&quot; role=&quot;presentation&quot; style=&quot;left: 574.171px; top: 957.554px; transform: scaleX(1.00537);&quot;&gt;Go to the start of the next&lt;/span&gt;&lt;span dir=&quot;ltr&quot; role=&quot;presentation&quot; style=&quot;left: 857.234px; top: 957.554px;&quot;&gt; &lt;/span&gt;&lt;span dir=&quot;ltr&quot; role=&quot;presentation&quot; style=&quot;left: 864.077px; top: 957.554px;&quot;&gt;W&lt;/span&gt;&lt;span dir=&quot;ltr&quot; role=&quot;presentation&quot; style=&quot;left: 888.245px; top: 957.554px; transform: scaleX(1.05486);&quot;&gt;ORD&lt;/span&gt;&lt;br role=&quot;presentation&quot;&gt;&lt;span dir=&quot;ltr&quot; role=&quot;presentation&quot; style=&quot;left: 501.065px; top: 990.981px;&quot;&gt;e&lt;/span&gt;&lt;span dir=&quot;ltr&quot; role=&quot;presentation&quot; style=&quot;left: 511.429px; top: 990.981px;&quot;&gt; &lt;/span&gt;&lt;span dir=&quot;ltr&quot; role=&quot;presentation&quot; style=&quot;left: 574.171px; top: 987.681px; transform: scaleX(1.00287);&quot;&gt;- Go to the&lt;/span&gt;&lt;span dir=&quot;ltr&quot; role=&quot;presentation&quot; style=&quot;left: 674.859px; top: 987.681px;&quot;&gt; &lt;/span&gt;&lt;span dir=&quot;ltr&quot; role=&quot;presentation&quot; style=&quot;left: 681.703px; top: 987.681px;&quot;&gt;e&lt;/span&gt;&lt;span dir=&quot;ltr&quot; role=&quot;presentation&quot; style=&quot;left: 695.39px; top: 987.681px; transform: scaleX(1.02556);&quot;&gt;nd of the current&lt;/span&gt;&lt;span dir=&quot;ltr&quot; role=&quot;presentation&quot; style=&quot;left: 881.445px; top: 987.681px;&quot;&gt; &lt;/span&gt;&lt;span dir=&quot;ltr&quot; role=&quot;presentation&quot; style=&quot;left: 888.288px; top: 987.681px; transform: scaleX(1.12065);&quot;&gt;word&lt;/span&gt;&lt;br role=&quot;presentation&quot;&gt;&lt;span dir=&quot;ltr&quot; role=&quot;presentation&quot; style=&quot;left: 501.065px; top: 1021.11px;&quot;&gt;E&lt;/span&gt;&lt;span dir=&quot;ltr&quot; role=&quot;presentation&quot; style=&quot;left: 511.429px; top: 1021.11px;&quot;&gt; - &lt;/span&gt;&lt;span dir=&quot;ltr&quot; role=&quot;presentation&quot; style=&quot;left: 574.171px; top: 1017.81px; transform: scaleX(1.00287);&quot;&gt;Go to the&lt;/span&gt;&lt;span dir=&quot;ltr&quot; role=&quot;presentation&quot; style=&quot;left: 674.859px; top: 1017.81px;&quot;&gt; &lt;/span&gt;&lt;span dir=&quot;ltr&quot; role=&quot;presentation&quot; style=&quot;left: 681.703px; top: 1017.81px;&quot;&gt;e&lt;/span&gt;&lt;span dir=&quot;ltr&quot; role=&quot;presentation&quot; style=&quot;left: 695.39px; top: 1017.81px; transform: scaleX(1.02556);&quot;&gt;nd of the current&lt;/span&gt;&lt;span dir=&quot;ltr&quot; role=&quot;presentation&quot; style=&quot;left: 881.445px; top: 1017.81px;&quot;&gt; &lt;/span&gt;&lt;span dir=&quot;ltr&quot; role=&quot;presentation&quot; style=&quot;left: 888.288px; top: 1017.81px; transform: scaleX(1.13959);&quot;&gt;WORD&lt;/span&gt;&lt;br role=&quot;presentation&quot;&gt;&lt;span dir=&quot;ltr&quot; role=&quot;presentation&quot; style=&quot;left: 501.065px; top: 1051.24px;&quot;&gt;b&lt;/span&gt;&lt;span dir=&quot;ltr&quot; role=&quot;presentation&quot; style=&quot;left: 511.429px; top: 1051.24px;&quot;&gt; - &lt;/span&gt;&lt;span dir=&quot;ltr&quot; role=&quot;presentation&quot; style=&quot;left: 574.171px; top: 1047.94px; transform: scaleX(1.00938);&quot;&gt;Go to the previous (&lt;/span&gt;&lt;span dir=&quot;ltr&quot; role=&quot;presentation&quot; style=&quot;left: 790.632px; top: 1047.94px;&quot;&gt;b&lt;/span&gt;&lt;span dir=&quot;ltr&quot; role=&quot;presentation&quot; style=&quot;left: 805.675px; top: 1047.94px; transform: scaleX(1.01731);&quot;&gt;efore)&lt;/span&gt;&lt;span dir=&quot;ltr&quot; role=&quot;presentation&quot; style=&quot;left: 870.749px; top: 1047.94px;&quot;&gt; &lt;/span&gt;&lt;span dir=&quot;ltr&quot; role=&quot;presentation&quot; style=&quot;left: 877.591px; top: 1047.94px; transform: scaleX(1.12065);&quot;&gt;word&lt;/span&gt;&lt;br role=&quot;presentation&quot;&gt;&lt;span dir=&quot;ltr&quot; role=&quot;presentation&quot; style=&quot;left: 501.065px; top: 1081.36px;&quot;&gt;B&lt;/span&gt;&lt;span dir=&quot;ltr&quot; role=&quot;presentation&quot; style=&quot;left: 511.429px; top: 1081.36px;&quot;&gt; - &lt;/span&gt;&lt;span dir=&quot;ltr&quot; role=&quot;presentation&quot; style=&quot;left: 574.171px; top: 1078.06px; transform: scaleX(1.00938);&quot;&gt;Go to the previous (&lt;/span&gt;&lt;span dir=&quot;ltr&quot; role=&quot;presentation&quot; style=&quot;left: 790.632px; top: 1078.06px;&quot;&gt;b&lt;/span&gt;&lt;span dir=&quot;ltr&quot; role=&quot;presentation&quot; style=&quot;left: 805.675px; top: 1078.06px; transform: scaleX(1.01731);&quot;&gt;efore)&lt;/span&gt;&lt;span dir=&quot;ltr&quot; role=&quot;presentation&quot; style=&quot;left: 870.749px; top: 1078.06px;&quot;&gt; &lt;/span&gt;&lt;span dir=&quot;ltr&quot; role=&quot;presentation&quot; style=&quot;left: 877.591px; top: 1078.06px; transform: scaleX(1.13959);&quot;&gt;WORD&lt;/span&gt;&lt;/span&gt;&lt;/font&gt;&lt;/div&gt;&lt;div style=&quot;font-size: 20px;&quot;&gt;&lt;span id=&quot;page83R_mcid0&quot; class=&quot;markedContent&quot;&gt;&lt;span dir=&quot;ltr&quot; role=&quot;presentation&quot; style=&quot;left: 406.918px; top: 1451.77px; font-size: 17.2154px; font-family: monospace;&quot;&gt;H&lt;/span&gt;&lt;span dir=&quot;ltr&quot; role=&quot;presentation&quot; style=&quot;left: 417.281px; top: 1451.77px; font-size: 17.2154px; font-family: monospace;&quot;&gt; &lt;/span&gt;&lt;span dir=&quot;ltr&quot; role=&quot;presentation&quot; style=&quot;left: 480.026px; top: 1448.47px; font-size: 21.5191px; font-family: sans-serif; transform: scaleX(1.03307);&quot;&gt;Move cursor to first (&lt;/span&gt;&lt;span dir=&quot;ltr&quot; role=&quot;presentation&quot; style=&quot;left: 712.087px; top: 1448.47px; font-size: 21.5191px; font-family: sans-serif;&quot;&gt;h&lt;/span&gt;&lt;span dir=&quot;ltr&quot; role=&quot;presentation&quot; style=&quot;left: 727.733px; top: 1448.47px; font-size: 21.5191px; font-family: sans-serif; transform: scaleX(1.03);&quot;&gt;ighest) line in current window.&lt;/span&gt;&lt;br role=&quot;presentation&quot;&gt;&lt;span dir=&quot;ltr&quot; role=&quot;presentation&quot; style=&quot;left: 406.918px; top: 1481.9px; font-size: 17.2154px; font-family: monospace;&quot;&gt;L&lt;/span&gt;&lt;span dir=&quot;ltr&quot; role=&quot;presentation&quot; style=&quot;left: 417.281px; top: 1481.9px; font-size: 17.2154px; font-family: monospace;&quot;&gt; &lt;/span&gt;&lt;span dir=&quot;ltr&quot; role=&quot;presentation&quot; style=&quot;left: 480.026px; top: 1478.6px; font-size: 21.5191px; font-family: sans-serif; transform: scaleX(1.02514);&quot;&gt;Move cursor to the&lt;/span&gt;&lt;span dir=&quot;ltr&quot; role=&quot;presentation&quot; style=&quot;left: 687.772px; top: 1478.6px; font-size: 21.5191px; font-family: sans-serif;&quot;&gt; &lt;/span&gt;&lt;span dir=&quot;ltr&quot; role=&quot;presentation&quot; style=&quot;left: 694.615px; top: 1478.6px; font-size: 21.5191px; font-family: sans-serif;&quot;&gt;l&lt;/span&gt;&lt;span dir=&quot;ltr&quot; role=&quot;presentation&quot; style=&quot;left: 702.792px; top: 1478.6px; font-size: 21.5191px; font-family: sans-serif; transform: scaleX(1.02902);&quot;&gt;owest line in current window.&lt;/span&gt;&lt;br role=&quot;presentation&quot;&gt;&lt;span dir=&quot;ltr&quot; role=&quot;presentation&quot; style=&quot;left: 406.918px; top: 1512.03px; font-size: 17.2154px; font-family: monospace;&quot;&gt;M&lt;/span&gt;&lt;span dir=&quot;ltr&quot; role=&quot;presentation&quot; style=&quot;left: 417.281px; top: 1512.03px; font-size: 17.2154px; font-family: monospace;&quot;&gt; &lt;/span&gt;&lt;span dir=&quot;ltr&quot; role=&quot;presentation&quot; style=&quot;left: 480.026px; top: 1508.73px; font-size: 21.5191px; font-family: sans-serif; transform: scaleX(1.02514);&quot;&gt;Move cursor to the&lt;/span&gt;&lt;span dir=&quot;ltr&quot; role=&quot;presentation&quot; style=&quot;left: 687.772px; top: 1508.73px; font-size: 21.5191px; font-family: sans-serif;&quot;&gt; &lt;/span&gt;&lt;span dir=&quot;ltr&quot; role=&quot;presentation&quot; style=&quot;left: 694.615px; top: 1508.73px; font-size: 21.5191px; font-family: sans-serif;&quot;&gt;m&lt;/span&gt;&lt;span dir=&quot;ltr&quot; role=&quot;presentation&quot; style=&quot;left: 717.382px; top: 1508.73px; font-size: 21.5191px; font-family: sans-serif; transform: scaleX(1.02656);&quot;&gt;iddle of the current window.&lt;/span&gt;&lt;/span&gt;&lt;font style=&quot;font-size: 20px;&quot;&gt;&lt;span id=&quot;page80R_mcid0&quot; class=&quot;markedContent&quot;&gt;&lt;span dir=&quot;ltr&quot; role=&quot;presentation&quot; style=&quot;left: 877.591px; top: 1078.06px; transform: scaleX(1.13959);&quot;&gt;&lt;/span&gt;&lt;/span&gt;&lt;/font&gt;&lt;/div&gt;&lt;div&gt;&lt;span id=&quot;page80R_mcid0&quot; class=&quot;markedContent&quot;&gt;&lt;span dir=&quot;ltr&quot; role=&quot;presentation&quot; style=&quot;left: 501.065px; top: 930.726px; font-size: 17.2154px; font-family: monospace;&quot;&gt;&lt;/span&gt;&lt;span dir=&quot;ltr&quot; role=&quot;presentation&quot; style=&quot;left: 877.591px; top: 1078.06px; font-size: 21.5191px; font-family: sans-serif; transform: scaleX(1.13959);&quot;&gt;&lt;/span&gt;&lt;/span&gt;&lt;/div&gt;" style="text;html=1;strokeColor=none;fillColor=none;align=left;verticalAlign=top;whiteSpace=wrap;rounded=0;" parent="1" vertex="1">
          <mxGeometry x="-400" y="40" width="710" height="600" as="geometry" />
        </mxCell>
        <mxCell id="8CGCrLb8g6kRV5iT2Z4M-2" value="&lt;div style=&quot;font-size: 20px;&quot;&gt;&lt;span id=&quot;page83R_mcid0&quot; class=&quot;markedContent&quot;&gt;&lt;span dir=&quot;ltr&quot; role=&quot;presentation&quot; style=&quot;left: 404.057px; top: 554.138px; font-size: 17.2154px; font-family: monospace; transform: scaleX(0.999713);&quot;&gt;Ctrl-d&lt;/span&gt;&lt;span dir=&quot;ltr&quot; role=&quot;presentation&quot; style=&quot;left: 466.239px; top: 554.138px; font-size: 17.2154px; font-family: monospace;&quot;&gt; &lt;/span&gt;&lt;span dir=&quot;ltr&quot; role=&quot;presentation&quot; style=&quot;left: 538.258px; top: 550.838px; font-size: 21.5191px; font-family: sans-serif; transform: scaleX(1.08173);&quot;&gt;Scroll&lt;/span&gt;&lt;span dir=&quot;ltr&quot; role=&quot;presentation&quot; style=&quot;left: 602.062px; top: 550.838px; font-size: 21.5191px; font-family: sans-serif;&quot;&gt; &lt;/span&gt;&lt;span dir=&quot;ltr&quot; role=&quot;presentation&quot; style=&quot;left: 608.904px; top: 550.838px; font-size: 21.5191px; font-family: sans-serif;&quot;&gt;d&lt;/span&gt;&lt;span dir=&quot;ltr&quot; role=&quot;presentation&quot; style=&quot;left: 623.947px; top: 550.838px; font-size: 21.5191px; font-family: sans-serif; transform: scaleX(1.00927);&quot;&gt;own half page&lt;/span&gt;&lt;br role=&quot;presentation&quot;&gt;&lt;span dir=&quot;ltr&quot; role=&quot;presentation&quot; style=&quot;left: 404.057px; top: 584.265px; font-size: 17.2154px; font-family: monospace; transform: scaleX(0.999713);&quot;&gt;Ctrl-u&lt;/span&gt;&lt;span dir=&quot;ltr&quot; role=&quot;presentation&quot; style=&quot;left: 466.239px; top: 584.265px; font-size: 17.2154px; font-family: monospace;&quot;&gt; &lt;/span&gt;&lt;span dir=&quot;ltr&quot; role=&quot;presentation&quot; style=&quot;left: 538.258px; top: 580.965px; font-size: 21.5191px; font-family: sans-serif; transform: scaleX(1.08173);&quot;&gt;Scroll&lt;/span&gt;&lt;span dir=&quot;ltr&quot; role=&quot;presentation&quot; style=&quot;left: 602.062px; top: 580.965px; font-size: 21.5191px; font-family: sans-serif;&quot;&gt; &lt;/span&gt;&lt;span dir=&quot;ltr&quot; role=&quot;presentation&quot; style=&quot;left: 608.904px; top: 580.965px; font-size: 21.5191px; font-family: sans-serif;&quot;&gt;u&lt;/span&gt;&lt;span dir=&quot;ltr&quot; role=&quot;presentation&quot; style=&quot;left: 624.55px; top: 580.965px; font-size: 21.5191px; font-family: sans-serif; transform: scaleX(1.00576);&quot;&gt;p half page&lt;/span&gt;&lt;br role=&quot;presentation&quot;&gt;&lt;span dir=&quot;ltr&quot; role=&quot;presentation&quot; style=&quot;left: 404.057px; top: 614.392px; font-size: 17.2154px; font-family: monospace; transform: scaleX(0.999713);&quot;&gt;Ctrl-f&lt;/span&gt;&lt;span dir=&quot;ltr&quot; role=&quot;presentation&quot; style=&quot;left: 466.239px; top: 614.392px; font-size: 17.2154px; font-family: monospace;&quot;&gt; &lt;/span&gt;&lt;span dir=&quot;ltr&quot; role=&quot;presentation&quot; style=&quot;left: 538.258px; top: 611.092px; font-size: 21.5191px; font-family: sans-serif; transform: scaleX(1.04671);&quot;&gt;Scroll down&lt;/span&gt;&lt;span dir=&quot;ltr&quot; role=&quot;presentation&quot; style=&quot;left: 667.91px; top: 611.092px; font-size: 21.5191px; font-family: sans-serif;&quot;&gt; &lt;/span&gt;&lt;span dir=&quot;ltr&quot; role=&quot;presentation&quot; style=&quot;left: 674.753px; top: 611.092px; font-size: 21.5191px; font-family: sans-serif;&quot;&gt;f&lt;/span&gt;&lt;span dir=&quot;ltr&quot; role=&quot;presentation&quot; style=&quot;left: 684.005px; top: 611.092px; font-size: 21.5191px; font-family: sans-serif; transform: scaleX(1.02155);&quot;&gt;ull page (or&lt;/span&gt;&lt;span dir=&quot;ltr&quot; role=&quot;presentation&quot; style=&quot;left: 810.064px; top: 611.092px; font-size: 21.5191px; font-family: sans-serif;&quot;&gt; &lt;/span&gt;&lt;span dir=&quot;ltr&quot; role=&quot;presentation&quot; style=&quot;left: 816.907px; top: 611.092px; font-size: 21.5191px; font-family: sans-serif;&quot;&gt;f&lt;/span&gt;&lt;span dir=&quot;ltr&quot; role=&quot;presentation&quot; style=&quot;left: 826.162px; top: 611.092px; font-size: 21.5191px; font-family: sans-serif; transform: scaleX(1.03642);&quot;&gt;orwards)&lt;/span&gt;&lt;br role=&quot;presentation&quot;&gt;&lt;span dir=&quot;ltr&quot; role=&quot;presentation&quot; style=&quot;left: 404.057px; top: 644.519px; font-size: 17.2154px; font-family: monospace; transform: scaleX(0.999713);&quot;&gt;Ctrl-b&lt;/span&gt;&lt;span dir=&quot;ltr&quot; role=&quot;presentation&quot; style=&quot;left: 466.239px; top: 644.519px; font-size: 17.2154px; font-family: monospace;&quot;&gt; &lt;/span&gt;&lt;span dir=&quot;ltr&quot; role=&quot;presentation&quot; style=&quot;left: 538.258px; top: 641.22px; font-size: 21.5191px; font-family: sans-serif; transform: scaleX(1.03047);&quot;&gt;Scroll up full page (to&lt;/span&gt;&lt;span dir=&quot;ltr&quot; role=&quot;presentation&quot; style=&quot;left: 775.764px; top: 641.22px; font-size: 21.5191px; font-family: sans-serif;&quot;&gt; &lt;/span&gt;&lt;span dir=&quot;ltr&quot; role=&quot;presentation&quot; style=&quot;left: 782.606px; top: 641.22px; font-size: 21.5191px; font-family: sans-serif;&quot;&gt;b&lt;/span&gt;&lt;span dir=&quot;ltr&quot; role=&quot;presentation&quot; style=&quot;left: 797.65px; top: 641.22px; font-size: 21.5191px; font-family: sans-serif; transform: scaleX(1.02692);&quot;&gt;eginning, or&lt;/span&gt;&lt;span dir=&quot;ltr&quot; role=&quot;presentation&quot; style=&quot;left: 930.207px; top: 641.22px; font-size: 21.5191px; font-family: sans-serif;&quot;&gt; &lt;/span&gt;&lt;span dir=&quot;ltr&quot; role=&quot;presentation&quot; style=&quot;left: 937.049px; top: 641.22px; font-size: 21.5191px; font-family: sans-serif;&quot;&gt;b&lt;/span&gt;&lt;span dir=&quot;ltr&quot; role=&quot;presentation&quot; style=&quot;left: 952.092px; top: 641.22px; font-size: 21.5191px; font-family: sans-serif; transform: scaleX(1.02411);&quot;&gt;ackwards)&lt;/span&gt;&lt;/span&gt;&lt;/div&gt;&lt;div style=&quot;font-size: 20px;&quot;&gt;&lt;span id=&quot;page83R_mcid0&quot; class=&quot;markedContent&quot;&gt;&lt;span dir=&quot;ltr&quot; role=&quot;presentation&quot; style=&quot;left: 952.092px; top: 641.22px; font-size: 21.5191px; font-family: sans-serif; transform: scaleX(1.02411);&quot;&gt;&lt;br&gt;&lt;/span&gt;&lt;/span&gt;&lt;/div&gt;&lt;div style=&quot;font-size: 20px;&quot;&gt;&lt;span id=&quot;page83R_mcid0&quot; class=&quot;markedContent&quot;&gt;&lt;span dir=&quot;ltr&quot; role=&quot;presentation&quot; style=&quot;left: 952.092px; top: 641.22px; font-size: 21.5191px; font-family: sans-serif; transform: scaleX(1.02411);&quot;&gt;u Undo the last change&lt;/span&gt;&lt;/span&gt;&lt;/div&gt;&lt;div style=&quot;font-size: 20px;&quot;&gt;&lt;span id=&quot;page83R_mcid0&quot; class=&quot;markedContent&quot;&gt;&lt;span dir=&quot;ltr&quot; role=&quot;presentation&quot; style=&quot;left: 952.092px; top: 641.22px; font-size: 21.5191px; font-family: sans-serif; transform: scaleX(1.02411);&quot;&gt;U Undo all changes in one Line&lt;/span&gt;&lt;/span&gt;&lt;/div&gt;&lt;div style=&quot;font-size: 20px;&quot;&gt;&lt;span id=&quot;page83R_mcid0&quot; class=&quot;markedContent&quot;&gt;&lt;span dir=&quot;ltr&quot; role=&quot;presentation&quot; style=&quot;left: 952.092px; top: 641.22px; font-size: 21.5191px; font-family: sans-serif; transform: scaleX(1.02411);&quot;&gt;Ctrl-r Redo the undos&lt;br&gt;&lt;/span&gt;&lt;/span&gt;&lt;/div&gt;&lt;div style=&quot;font-size: 20px;&quot;&gt;&lt;span id=&quot;page83R_mcid0&quot; class=&quot;markedContent&quot;&gt;&lt;span dir=&quot;ltr&quot; role=&quot;presentation&quot; style=&quot;left: 952.092px; top: 641.22px; font-size: 21.5191px; font-family: sans-serif; transform: scaleX(1.02411);&quot;&gt;. the dot command repeats the last command&lt;/span&gt;&lt;/span&gt;&lt;/div&gt;&lt;div style=&quot;font-size: 20px;&quot;&gt;&lt;span id=&quot;page83R_mcid0&quot; class=&quot;markedContent&quot;&gt;&lt;span dir=&quot;ltr&quot; role=&quot;presentation&quot; style=&quot;left: 952.092px; top: 641.22px; font-size: 21.5191px; font-family: sans-serif; transform: scaleX(1.02411);&quot;&gt;&lt;br&gt;&lt;/span&gt;&lt;/span&gt;&lt;/div&gt;&lt;div style=&quot;font-size: 20px;&quot;&gt;&lt;span id=&quot;page83R_mcid0&quot; class=&quot;markedContent&quot;&gt;&lt;span dir=&quot;ltr&quot; role=&quot;presentation&quot; style=&quot;left: 952.092px; top: 641.22px; font-size: 21.5191px; font-family: sans-serif; transform: scaleX(1.02411);&quot;&gt;Jump List &lt;/span&gt;&lt;/span&gt;&lt;span class=&quot;ILfuVd&quot;&gt;&lt;span class=&quot;hgKElc&quot;&gt;&lt;b&gt;CTRL-I and CTRL-O&lt;/b&gt;&lt;/span&gt;&lt;/span&gt;&lt;/div&gt;&lt;div style=&quot;font-size: 20px;&quot;&gt;&lt;span class=&quot;ILfuVd&quot;&gt;&lt;span class=&quot;hgKElc&quot;&gt;&lt;b&gt;Ctrl W W &lt;/b&gt;jump between Windows&lt;/span&gt;&lt;/span&gt;&lt;/div&gt;&lt;div style=&quot;font-size: 20px;&quot;&gt;&lt;ul&gt;&lt;li&gt;&lt;code&gt;&#39;.&lt;/code&gt; jump back to last edited line.&lt;/li&gt;&lt;li&gt;&lt;code&gt;g;&lt;/code&gt; jump back to last edited position.&lt;/li&gt;&lt;/ul&gt;&lt;div&gt;&lt;ul&gt;&lt;li&gt;&lt;code&gt;%&lt;/code&gt; to jump from an open brace to its matching closing brace. &lt;br&gt;&lt;/li&gt;&lt;li&gt; Use &lt;code&gt;[{&lt;/code&gt; to jump back to the &quot;{&quot; at the start of the &lt;br&gt;    current code block. &lt;/li&gt;&lt;li&gt; Use &lt;code&gt;gd&lt;/code&gt; to jump from the use of a variable to its local declaration. &lt;br&gt;&lt;/li&gt;&lt;li&gt;&lt;pre class=&quot;_3GnarIQX9tD_qsgXkfSDz1&quot;&gt;&lt;code class=&quot;_34q3PgLsx9zIU5BiSOjFoM&quot;&gt;o - in visual mode jump between selection&lt;/code&gt;&lt;/pre&gt;&lt;/li&gt;&lt;li&gt;&lt;code&gt;zm zM fold all level/s&lt;/code&gt;&lt;/li&gt;&lt;li&gt;&lt;code&gt;zr zR unfold all level/s&lt;/code&gt;&lt;/li&gt;&lt;li&gt;&lt;code&gt;za zA fold/unfold the cursor level/s&lt;/code&gt;&lt;br&gt;&lt;/li&gt;&lt;/ul&gt;&lt;/div&gt;&lt;span class=&quot;ILfuVd&quot;&gt;&lt;span class=&quot;hgKElc&quot;&gt;&lt;/span&gt;&lt;/span&gt;&lt;span id=&quot;page83R_mcid0&quot; class=&quot;markedContent&quot;&gt;&lt;span dir=&quot;ltr&quot; role=&quot;presentation&quot; style=&quot;left: 952.092px; top: 641.22px; font-size: 21.5191px; font-family: sans-serif; transform: scaleX(1.02411);&quot;&gt;&lt;/span&gt;&lt;/span&gt;&lt;/div&gt;" style="text;html=1;strokeColor=none;fillColor=none;align=left;verticalAlign=top;whiteSpace=wrap;rounded=0;fontFamily=Helvetica;fontSize=20;" parent="1" vertex="1">
          <mxGeometry x="-960" y="40" width="520" height="780" as="geometry" />
        </mxCell>
        <mxCell id="8CGCrLb8g6kRV5iT2Z4M-3" value="&lt;div&gt;&lt;b&gt;Search:&lt;/b&gt;&lt;/div&gt;&lt;div&gt;type /foo&amp;lt;ENTER&amp;gt;&lt;/div&gt;&lt;div&gt;n - next&lt;/div&gt;&lt;div&gt;N - back&lt;/div&gt;&lt;div&gt;&lt;br&gt;&lt;/div&gt;&lt;div&gt;Search Word under Cursor: &lt;br&gt;&lt;/div&gt;&lt;div&gt;* - forward search exact Word&lt;/div&gt;&lt;div&gt;# - backwards search exact Word&lt;/div&gt;&lt;div&gt;g* - forward search not exact Word&lt;/div&gt;&lt;div&gt;g# - backwards search not exact Word&lt;br&gt;&lt;/div&gt;" style="text;html=1;strokeColor=none;fillColor=none;align=left;verticalAlign=top;whiteSpace=wrap;rounded=0;fontFamily=Helvetica;fontSize=20;" parent="1" vertex="1">
          <mxGeometry x="880" y="300" width="360" height="300" as="geometry" />
        </mxCell>
        <mxCell id="NnfQQq5t3lgXKnAAZFr9-1" value="&lt;div&gt;&lt;span id=&quot;page134R_mcid0&quot; class=&quot;markedContent&quot;&gt;&lt;span dir=&quot;ltr&quot; role=&quot;presentation&quot; style=&quot;left: 255.446px; top: 1316.2px; font-size: 21.5191px; font-family: sans-serif;&quot;&gt;&lt;b&gt;Verbs&lt;/b&gt;&lt;br&gt;&lt;/span&gt;&lt;/span&gt;&lt;/div&gt;&lt;div&gt;&lt;span id=&quot;page134R_mcid0&quot; class=&quot;markedContent&quot;&gt;&lt;span dir=&quot;ltr&quot; role=&quot;presentation&quot; style=&quot;left: 255.446px; top: 1316.2px; font-size: 21.5191px; font-family: sans-serif;&quot;&gt;•&lt;/span&gt;&lt;span dir=&quot;ltr&quot; role=&quot;presentation&quot; style=&quot;left: 268.143px; top: 1316.2px; font-size: 21.5191px; font-family: sans-serif;&quot;&gt; &lt;/span&gt;&lt;span dir=&quot;ltr&quot; role=&quot;presentation&quot; style=&quot;left: 280.099px; top: 1319.5px; font-size: 17.2154px; font-family: monospace;&quot;&gt;x&lt;/span&gt;&lt;span dir=&quot;ltr&quot; role=&quot;presentation&quot; style=&quot;left: 290.463px; top: 1319.5px; font-size: 17.2154px; font-family: monospace;&quot;&gt; &lt;/span&gt;&lt;span dir=&quot;ltr&quot; role=&quot;presentation&quot; style=&quot;left: 297.305px; top: 1316.2px; font-size: 21.5191px; font-family: sans-serif; transform: scaleX(1.01802);&quot;&gt;- delete character under the cursor to the right&lt;/span&gt;&lt;/span&gt;&lt;/div&gt;&lt;div&gt;&lt;span id=&quot;page134R_mcid0&quot; class=&quot;markedContent&quot;&gt;&lt;/span&gt;&lt;/div&gt;&lt;span id=&quot;page134R_mcid0&quot; class=&quot;markedContent&quot;&gt;&lt;span dir=&quot;ltr&quot; role=&quot;presentation&quot; style=&quot;left: 255.446px; top: 1361.39px; font-size: 21.5191px; font-family: sans-serif;&quot;&gt;•&lt;/span&gt;&lt;span dir=&quot;ltr&quot; role=&quot;presentation&quot; style=&quot;left: 268.143px; top: 1361.39px; font-size: 21.5191px; font-family: sans-serif;&quot;&gt; &lt;/span&gt;&lt;span dir=&quot;ltr&quot; role=&quot;presentation&quot; style=&quot;left: 280.099px; top: 1364.69px; font-size: 17.2154px; font-family: monospace;&quot;&gt;X&lt;/span&gt;&lt;span dir=&quot;ltr&quot; role=&quot;presentation&quot; style=&quot;left: 290.463px; top: 1364.69px; font-size: 17.2154px; font-family: monospace;&quot;&gt; &lt;/span&gt;&lt;span dir=&quot;ltr&quot; role=&quot;presentation&quot; style=&quot;left: 297.305px; top: 1361.39px; font-size: 21.5191px; font-family: sans-serif; transform: scaleX(1.01551);&quot;&gt;- delete character under the cursor to the left&lt;/span&gt;&lt;br role=&quot;presentation&quot;&gt;&lt;span dir=&quot;ltr&quot; role=&quot;presentation&quot; style=&quot;left: 255.446px; top: 1406.58px; font-size: 21.5191px; font-family: sans-serif;&quot;&gt;•&lt;/span&gt;&lt;span dir=&quot;ltr&quot; role=&quot;presentation&quot; style=&quot;left: 268.143px; top: 1406.58px; font-size: 21.5191px; font-family: sans-serif;&quot;&gt; &lt;/span&gt;&lt;span dir=&quot;ltr&quot; role=&quot;presentation&quot; style=&quot;left: 280.099px; top: 1409.88px; font-size: 17.2154px; font-family: monospace;&quot;&gt;r&lt;/span&gt;&lt;span dir=&quot;ltr&quot; role=&quot;presentation&quot; style=&quot;left: 290.463px; top: 1409.88px; font-size: 17.2154px; font-family: monospace;&quot;&gt; &lt;/span&gt;&lt;span dir=&quot;ltr&quot; role=&quot;presentation&quot; style=&quot;left: 297.305px; top: 1406.58px; font-size: 21.5191px; font-family: sans-serif; transform: scaleX(1.02186);&quot;&gt;- replace character under the cursor with another character&lt;/span&gt;&lt;br role=&quot;presentation&quot;&gt;&lt;/span&gt;&lt;div&gt;&lt;span id=&quot;page134R_mcid0&quot; class=&quot;markedContent&quot;&gt;&lt;span dir=&quot;ltr&quot; role=&quot;presentation&quot; style=&quot;left: 255.446px; top: 1451.77px; font-size: 21.5191px; font-family: sans-serif;&quot;&gt;•&lt;/span&gt;&lt;span dir=&quot;ltr&quot; role=&quot;presentation&quot; style=&quot;left: 268.143px; top: 1451.77px; font-size: 21.5191px; font-family: sans-serif;&quot;&gt; &lt;/span&gt;&lt;span dir=&quot;ltr&quot; role=&quot;presentation&quot; style=&quot;left: 280.099px; top: 1455.07px; font-size: 17.2154px; font-family: monospace;&quot;&gt;s&lt;/span&gt;&lt;span dir=&quot;ltr&quot; role=&quot;presentation&quot; style=&quot;left: 290.463px; top: 1455.07px; font-size: 17.2154px; font-family: monospace;&quot;&gt; &lt;/span&gt;&lt;span dir=&quot;ltr&quot; role=&quot;presentation&quot; style=&quot;left: 297.305px; top: 1451.77px; font-size: 21.5191px; font-family: sans-serif; transform: scaleX(1.01395);&quot;&gt;- delete character under the cursor and enter the Insert mode&lt;/span&gt;&lt;/span&gt;&lt;/div&gt;&lt;div&gt;&lt;span id=&quot;page134R_mcid0&quot; class=&quot;markedContent&quot;&gt;&lt;span dir=&quot;ltr&quot; role=&quot;presentation&quot; style=&quot;left: 297.305px; top: 1451.77px; font-size: 21.5191px; font-family: sans-serif; transform: scaleX(1.01395);&quot;&gt;&lt;br&gt;&lt;/span&gt;&lt;/span&gt;&lt;/div&gt;&lt;div&gt;&lt;span id=&quot;page137R_mcid0&quot; class=&quot;markedContent&quot;&gt;&lt;span dir=&quot;ltr&quot; role=&quot;presentation&quot; style=&quot;left: 255.446px; top: 280.701px; font-size: 21.5191px; font-family: sans-serif;&quot;&gt;•&lt;/span&gt;&lt;span dir=&quot;ltr&quot; role=&quot;presentation&quot; style=&quot;left: 268.143px; top: 280.701px; font-size: 21.5191px; font-family: sans-serif;&quot;&gt; &lt;/span&gt;&lt;span dir=&quot;ltr&quot; role=&quot;presentation&quot; style=&quot;left: 280.099px; top: 284.001px; font-size: 17.2154px; font-family: monospace;&quot;&gt;y&lt;/span&gt;&lt;span dir=&quot;ltr&quot; role=&quot;presentation&quot; style=&quot;left: 290.463px; top: 284.001px; font-size: 17.2154px; font-family: monospace;&quot;&gt; &lt;/span&gt;&lt;span dir=&quot;ltr&quot; role=&quot;presentation&quot; style=&quot;left: 297.305px; top: 280.701px; font-size: 21.5191px; font-family: sans-serif;&quot;&gt;-&lt;/span&gt;&lt;span dir=&quot;ltr&quot; role=&quot;presentation&quot; style=&quot;left: 304.578px; top: 280.701px; font-size: 21.5191px; font-family: sans-serif;&quot;&gt; &lt;/span&gt;&lt;span dir=&quot;ltr&quot; role=&quot;presentation&quot; style=&quot;left: 311.422px; top: 280.701px; font-size: 21.5191px; font-family: sans-serif;&quot;&gt;y&lt;/span&gt;&lt;span dir=&quot;ltr&quot; role=&quot;presentation&quot; style=&quot;left: 323.923px; top: 280.701px; font-size: 21.5191px; font-family: sans-serif; transform: scaleX(0.999895);&quot;&gt;ank (copy)&lt;/span&gt;&lt;br role=&quot;presentation&quot;&gt;&lt;span dir=&quot;ltr&quot; role=&quot;presentation&quot; style=&quot;left: 255.446px; top: 325.893px; font-size: 21.5191px; font-family: sans-serif;&quot;&gt;•&lt;/span&gt;&lt;span dir=&quot;ltr&quot; role=&quot;presentation&quot; style=&quot;left: 268.143px; top: 325.893px; font-size: 21.5191px; font-family: sans-serif;&quot;&gt; &lt;/span&gt;&lt;span dir=&quot;ltr&quot; role=&quot;presentation&quot; style=&quot;left: 280.099px; top: 329.193px; font-size: 17.2154px; font-family: monospace;&quot;&gt;c&lt;/span&gt;&lt;span dir=&quot;ltr&quot; role=&quot;presentation&quot; style=&quot;left: 290.463px; top: 329.193px; font-size: 17.2154px; font-family: monospace;&quot;&gt; &lt;/span&gt;&lt;span dir=&quot;ltr&quot; role=&quot;presentation&quot; style=&quot;left: 297.305px; top: 325.893px; font-size: 21.5191px; font-family: sans-serif;&quot;&gt;-&lt;/span&gt;&lt;span dir=&quot;ltr&quot; role=&quot;presentation&quot; style=&quot;left: 304.578px; top: 325.893px; font-size: 21.5191px; font-family: sans-serif;&quot;&gt; &lt;/span&gt;&lt;span dir=&quot;ltr&quot; role=&quot;presentation&quot; style=&quot;left: 311.422px; top: 325.893px; font-size: 21.5191px; font-family: sans-serif;&quot;&gt;c&lt;/span&gt;&lt;span dir=&quot;ltr&quot; role=&quot;presentation&quot; style=&quot;left: 324.526px; top: 325.893px; font-size: 21.5191px; font-family: sans-serif; transform: scaleX(0.995845);&quot;&gt;hange&lt;/span&gt;&lt;br role=&quot;presentation&quot;&gt;&lt;span dir=&quot;ltr&quot; role=&quot;presentation&quot; style=&quot;left: 255.446px; top: 371.083px; font-size: 21.5191px; font-family: sans-serif;&quot;&gt;•&lt;/span&gt;&lt;span dir=&quot;ltr&quot; role=&quot;presentation&quot; style=&quot;left: 268.143px; top: 371.083px; font-size: 21.5191px; font-family: sans-serif;&quot;&gt; &lt;/span&gt;&lt;span dir=&quot;ltr&quot; role=&quot;presentation&quot; style=&quot;left: 280.099px; top: 374.382px; font-size: 17.2154px; font-family: monospace;&quot;&gt;d&lt;/span&gt;&lt;span dir=&quot;ltr&quot; role=&quot;presentation&quot; style=&quot;left: 290.463px; top: 374.382px; font-size: 17.2154px; font-family: monospace;&quot;&gt; &lt;/span&gt;&lt;span dir=&quot;ltr&quot; role=&quot;presentation&quot; style=&quot;left: 297.305px; top: 371.083px; font-size: 21.5191px; font-family: sans-serif;&quot;&gt;-&lt;/span&gt;&lt;span dir=&quot;ltr&quot; role=&quot;presentation&quot; style=&quot;left: 304.578px; top: 371.083px; font-size: 21.5191px; font-family: sans-serif;&quot;&gt; &lt;/span&gt;&lt;span dir=&quot;ltr&quot; role=&quot;presentation&quot; style=&quot;left: 311.422px; top: 371.083px; font-size: 21.5191px; font-family: sans-serif;&quot;&gt;d&lt;/span&gt;&lt;span dir=&quot;ltr&quot; role=&quot;presentation&quot; style=&quot;left: 326.462px; top: 371.083px; font-size: 21.5191px; font-family: sans-serif; transform: scaleX(0.993313);&quot;&gt;elete&lt;/span&gt;&lt;br role=&quot;presentation&quot;&gt;&lt;span dir=&quot;ltr&quot; role=&quot;presentation&quot; style=&quot;left: 255.446px; top: 416.272px; font-size: 21.5191px; font-family: sans-serif;&quot;&gt;•&lt;/span&gt;&lt;span dir=&quot;ltr&quot; role=&quot;presentation&quot; style=&quot;left: 268.143px; top: 416.272px; font-size: 21.5191px; font-family: sans-serif;&quot;&gt; &lt;/span&gt;&lt;span dir=&quot;ltr&quot; role=&quot;presentation&quot; style=&quot;left: 280.099px; top: 419.572px; font-size: 17.2154px; font-family: monospace;&quot;&gt;v&lt;/span&gt;&lt;span dir=&quot;ltr&quot; role=&quot;presentation&quot; style=&quot;left: 290.463px; top: 419.572px; font-size: 17.2154px; font-family: monospace;&quot;&gt; &lt;/span&gt;&lt;span dir=&quot;ltr&quot; role=&quot;presentation&quot; style=&quot;left: 297.305px; top: 416.272px; font-size: 21.5191px; font-family: sans-serif;&quot;&gt;-&lt;/span&gt;&lt;span dir=&quot;ltr&quot; role=&quot;presentation&quot; style=&quot;left: 304.578px; top: 416.272px; font-size: 21.5191px; font-family: sans-serif;&quot;&gt; &lt;/span&gt;&lt;span dir=&quot;ltr&quot; role=&quot;presentation&quot; style=&quot;left: 311.422px; top: 416.272px; font-size: 21.5191px; font-family: sans-serif;&quot;&gt;v&lt;/span&gt;&lt;span dir=&quot;ltr&quot; role=&quot;presentation&quot; style=&quot;left: 323.923px; top: 416.272px; font-size: 21.5191px; font-family: sans-serif; transform: scaleX(1.01315);&quot;&gt;isually select (not really a verb, but used with verbs)&lt;/span&gt;&lt;/span&gt;&lt;span id=&quot;page134R_mcid0&quot; class=&quot;markedContent&quot;&gt;&lt;span dir=&quot;ltr&quot; role=&quot;presentation&quot; style=&quot;left: 297.305px; top: 1451.77px; font-size: 21.5191px; font-family: sans-serif; transform: scaleX(1.01395);&quot;&gt;&lt;/span&gt;&lt;/span&gt;&lt;/div&gt;" style="text;html=1;strokeColor=none;fillColor=none;align=left;verticalAlign=top;whiteSpace=wrap;rounded=0;fontStyle=0" parent="1" vertex="1">
          <mxGeometry x="-400" y="490" width="710" height="510" as="geometry" />
        </mxCell>
        <mxCell id="NnfQQq5t3lgXKnAAZFr9-2" value="&lt;span id=&quot;page137R_mcid0&quot; class=&quot;markedContent&quot;&gt;&lt;b&gt;&lt;span dir=&quot;ltr&quot; role=&quot;presentation&quot; style=&quot;left: 220.322px; top: 619.992px; font-size: 25.823px; font-family: sans-serif; transform: scaleX(1.1628);&quot;&gt;Modifiers&lt;/span&gt;&lt;/b&gt;&lt;br role=&quot;presentation&quot;&gt;&lt;span dir=&quot;ltr&quot; role=&quot;presentation&quot; style=&quot;left: 220.322px; top: 685.233px; font-size: 21.5191px; font-family: sans-serif; transform: scaleX(1.02031);&quot;&gt;In Vim, modifiers are used right before nouns, so you can describe how you want to influence&lt;/span&gt;&lt;br role=&quot;presentation&quot;&gt;&lt;span dir=&quot;ltr&quot; role=&quot;presentation&quot; style=&quot;left: 220.322px; top: 715.36px; font-size: 21.5191px; font-family: sans-serif; transform: scaleX(1.01427);&quot;&gt;the nouns. Here are the most important ones:&lt;/span&gt;&lt;br role=&quot;presentation&quot;&gt;&lt;span dir=&quot;ltr&quot; role=&quot;presentation&quot; style=&quot;left: 255.446px; top: 760.552px; font-size: 21.5191px; font-family: sans-serif;&quot;&gt;•&lt;/span&gt;&lt;span dir=&quot;ltr&quot; role=&quot;presentation&quot; style=&quot;left: 268.143px; top: 760.552px; font-size: 21.5191px; font-family: sans-serif;&quot;&gt; &lt;/span&gt;&lt;span dir=&quot;ltr&quot; role=&quot;presentation&quot; style=&quot;left: 280.099px; top: 763.852px; font-size: 17.2154px; font-family: monospace;&quot;&gt;i&lt;/span&gt;&lt;span dir=&quot;ltr&quot; role=&quot;presentation&quot; style=&quot;left: 290.463px; top: 763.852px; font-size: 17.2154px; font-family: monospace;&quot;&gt; &lt;/span&gt;&lt;span dir=&quot;ltr&quot; role=&quot;presentation&quot; style=&quot;left: 297.305px; top: 760.552px; font-size: 21.5191px; font-family: sans-serif; transform: scaleX(1.0213);&quot;&gt;- inner (&lt;/span&gt;&lt;span dir=&quot;ltr&quot; role=&quot;presentation&quot; style=&quot;left: 384.286px; top: 760.552px; font-size: 21.5191px; font-family: sans-serif;&quot;&gt;i&lt;/span&gt;&lt;span dir=&quot;ltr&quot; role=&quot;presentation&quot; style=&quot;left: 392.462px; top: 760.552px; font-size: 21.5191px; font-family: sans-serif; transform: scaleX(1.00864);&quot;&gt;nside)&lt;/span&gt;&lt;br role=&quot;presentation&quot;&gt;&lt;span dir=&quot;ltr&quot; role=&quot;presentation&quot; style=&quot;left: 255.446px; top: 805.742px; font-size: 21.5191px; font-family: sans-serif;&quot;&gt;•&lt;/span&gt;&lt;span dir=&quot;ltr&quot; role=&quot;presentation&quot; style=&quot;left: 268.143px; top: 805.742px; font-size: 21.5191px; font-family: sans-serif;&quot;&gt; &lt;/span&gt;&lt;span dir=&quot;ltr&quot; role=&quot;presentation&quot; style=&quot;left: 280.099px; top: 809.042px; font-size: 17.2154px; font-family: monospace;&quot;&gt;a&lt;/span&gt;&lt;span dir=&quot;ltr&quot; role=&quot;presentation&quot; style=&quot;left: 290.463px; top: 809.042px; font-size: 17.2154px; font-family: monospace;&quot;&gt; &lt;/span&gt;&lt;span dir=&quot;ltr&quot; role=&quot;presentation&quot; style=&quot;left: 297.305px; top: 805.742px; font-size: 21.5191px; font-family: sans-serif; transform: scaleX(0.980491);&quot;&gt;- a (&lt;/span&gt;&lt;span dir=&quot;ltr&quot; role=&quot;presentation&quot; style=&quot;left: 339.482px; top: 805.742px; font-size: 21.5191px; font-family: sans-serif;&quot;&gt;a&lt;/span&gt;&lt;span dir=&quot;ltr&quot; role=&quot;presentation&quot; style=&quot;left: 353.426px; top: 805.742px; font-size: 21.5191px; font-family: sans-serif; transform: scaleX(1.03207);&quot;&gt;round)&lt;/span&gt;&lt;br role=&quot;presentation&quot;&gt;&lt;span dir=&quot;ltr&quot; role=&quot;presentation&quot; style=&quot;left: 255.446px; top: 850.934px; font-size: 21.5191px; font-family: sans-serif;&quot;&gt;•&lt;/span&gt;&lt;span dir=&quot;ltr&quot; role=&quot;presentation&quot; style=&quot;left: 268.143px; top: 850.934px; font-size: 21.5191px; font-family: sans-serif;&quot;&gt; &lt;/span&gt;&lt;span dir=&quot;ltr&quot; role=&quot;presentation&quot; style=&quot;left: 280.099px; top: 854.234px; font-size: 17.2154px; font-family: monospace; transform: scaleX(0.999713);&quot;&gt;NUM&lt;/span&gt;&lt;span dir=&quot;ltr&quot; role=&quot;presentation&quot; style=&quot;left: 311.19px; top: 854.234px; font-size: 17.2154px; font-family: monospace;&quot;&gt; &lt;/span&gt;&lt;span dir=&quot;ltr&quot; role=&quot;presentation&quot; style=&quot;left: 318.031px; top: 850.934px; font-size: 21.5191px; font-family: sans-serif; transform: scaleX(1.00697);&quot;&gt;- number (e.g.: 1, 2, 10)&lt;/span&gt;&lt;br role=&quot;presentation&quot;&gt;&lt;span dir=&quot;ltr&quot; role=&quot;presentation&quot; style=&quot;left: 255.446px; top: 896.124px; font-size: 21.5191px; font-family: sans-serif;&quot;&gt;•&lt;/span&gt;&lt;span dir=&quot;ltr&quot; role=&quot;presentation&quot; style=&quot;left: 268.143px; top: 896.124px; font-size: 21.5191px; font-family: sans-serif;&quot;&gt; &lt;/span&gt;&lt;span dir=&quot;ltr&quot; role=&quot;presentation&quot; style=&quot;left: 280.099px; top: 899.423px; font-size: 17.2154px; font-family: monospace;&quot;&gt;t&lt;/span&gt;&lt;span dir=&quot;ltr&quot; role=&quot;presentation&quot; style=&quot;left: 290.463px; top: 899.423px; font-size: 17.2154px; font-family: monospace;&quot;&gt; &lt;/span&gt;&lt;span dir=&quot;ltr&quot; role=&quot;presentation&quot; style=&quot;left: 297.305px; top: 896.124px; font-size: 21.5191px; font-family: sans-serif; transform: scaleX(1.01006);&quot;&gt;- searches for something and stops before it (search un&lt;/span&gt;&lt;span dir=&quot;ltr&quot; role=&quot;presentation&quot; style=&quot;left: 900.917px; top: 896.124px; font-size: 21.5191px; font-family: sans-serif;&quot;&gt;t&lt;/span&gt;&lt;span dir=&quot;ltr&quot; role=&quot;presentation&quot; style=&quot;left: 910.858px; top: 896.124px; font-size: 21.5191px; font-family: sans-serif; transform: scaleX(1.08828);&quot;&gt;il)&lt;/span&gt;&lt;br role=&quot;presentation&quot;&gt;&lt;span dir=&quot;ltr&quot; role=&quot;presentation&quot; style=&quot;left: 255.446px; top: 941.316px; font-size: 21.5191px; font-family: sans-serif;&quot;&gt;•&lt;/span&gt;&lt;span dir=&quot;ltr&quot; role=&quot;presentation&quot; style=&quot;left: 268.143px; top: 941.316px; font-size: 21.5191px; font-family: sans-serif;&quot;&gt; &lt;/span&gt;&lt;span dir=&quot;ltr&quot; role=&quot;presentation&quot; style=&quot;left: 280.099px; top: 944.615px; font-size: 17.2154px; font-family: monospace;&quot;&gt;f&lt;/span&gt;&lt;span dir=&quot;ltr&quot; role=&quot;presentation&quot; style=&quot;left: 290.463px; top: 944.615px; font-size: 17.2154px; font-family: monospace;&quot;&gt; &lt;/span&gt;&lt;span dir=&quot;ltr&quot; role=&quot;presentation&quot; style=&quot;left: 297.305px; top: 941.316px; font-size: 21.5191px; font-family: sans-serif; transform: scaleX(1.01291);&quot;&gt;- searches for that thing and lands on it (&lt;/span&gt;&lt;span dir=&quot;ltr&quot; role=&quot;presentation&quot; style=&quot;left: 744.538px; top: 941.316px; font-size: 21.5191px; font-family: sans-serif;&quot;&gt;f&lt;/span&gt;&lt;span dir=&quot;ltr&quot; role=&quot;presentation&quot; style=&quot;left: 753.79px; top: 941.316px; font-size: 21.5191px; font-family: sans-serif; transform: scaleX(1.02982);&quot;&gt;ind)&lt;/span&gt;&lt;br role=&quot;presentation&quot;&gt;&lt;/span&gt;&lt;div&gt;&lt;span id=&quot;page137R_mcid0&quot; class=&quot;markedContent&quot;&gt;&lt;span dir=&quot;ltr&quot; role=&quot;presentation&quot; style=&quot;left: 255.446px; top: 986.505px; font-size: 21.5191px; font-family: sans-serif;&quot;&gt;•&lt;/span&gt;&lt;span dir=&quot;ltr&quot; role=&quot;presentation&quot; style=&quot;left: 268.143px; top: 986.505px; font-size: 21.5191px; font-family: sans-serif;&quot;&gt; &lt;/span&gt;&lt;span dir=&quot;ltr&quot; role=&quot;presentation&quot; style=&quot;left: 280.099px; top: 989.805px; font-size: 17.2154px; font-family: monospace;&quot;&gt;/&lt;/span&gt;&lt;span dir=&quot;ltr&quot; role=&quot;presentation&quot; style=&quot;left: 290.463px; top: 989.805px; font-size: 17.2154px; font-family: monospace;&quot;&gt; &lt;/span&gt;&lt;span dir=&quot;ltr&quot; role=&quot;presentation&quot; style=&quot;left: 297.305px; top: 986.505px; font-size: 21.5191px; font-family: sans-serif; transform: scaleX(1.02786);&quot;&gt;- find a string (literal or regular expression)&lt;/span&gt;&lt;/span&gt;&lt;/div&gt;" style="text;html=1;strokeColor=none;fillColor=none;align=left;verticalAlign=top;whiteSpace=wrap;rounded=0;" parent="1" vertex="1">
          <mxGeometry x="-400" y="820" width="580" height="430" as="geometry" />
        </mxCell>
        <mxCell id="NnfQQq5t3lgXKnAAZFr9-3" value="&lt;div&gt;&lt;span id=&quot;page137R_mcid0&quot; class=&quot;markedContent&quot;&gt;&lt;span dir=&quot;ltr&quot; role=&quot;presentation&quot; style=&quot;left: 255.446px; top: 1210.28px; font-size: 21.5191px; font-family: sans-serif;&quot;&gt;&lt;b&gt;Nouns&lt;/b&gt;&lt;br&gt;&lt;/span&gt;&lt;/span&gt;&lt;/div&gt;&lt;div&gt;&lt;span id=&quot;page137R_mcid0&quot; class=&quot;markedContent&quot;&gt;&lt;span dir=&quot;ltr&quot; role=&quot;presentation&quot; style=&quot;left: 255.446px; top: 1210.28px; font-size: 21.5191px; font-family: sans-serif;&quot;&gt;•&lt;/span&gt;&lt;span dir=&quot;ltr&quot; role=&quot;presentation&quot; style=&quot;left: 268.143px; top: 1210.28px; font-size: 21.5191px; font-family: sans-serif;&quot;&gt; &lt;/span&gt;&lt;span dir=&quot;ltr&quot; role=&quot;presentation&quot; style=&quot;left: 280.099px; top: 1213.58px; font-size: 17.2154px; font-family: monospace;&quot;&gt;w&lt;/span&gt;&lt;span dir=&quot;ltr&quot; role=&quot;presentation&quot; style=&quot;left: 290.462px; top: 1210.28px; font-size: 21.5191px; font-family: sans-serif;&quot;&gt;,&lt;/span&gt;&lt;span dir=&quot;ltr&quot; role=&quot;presentation&quot; style=&quot;left: 297.305px; top: 1213.58px; font-size: 17.2154px; font-family: monospace;&quot;&gt;W&lt;/span&gt;&lt;span dir=&quot;ltr&quot; role=&quot;presentation&quot; style=&quot;left: 307.669px; top: 1213.58px; font-size: 17.2154px; font-family: monospace;&quot;&gt; &lt;/span&gt;&lt;span dir=&quot;ltr&quot; role=&quot;presentation&quot; style=&quot;left: 314.51px; top: 1210.28px; font-size: 21.5191px; font-family: sans-serif; transform: scaleX(1.00527);&quot;&gt;- start of next&lt;/span&gt;&lt;span dir=&quot;ltr&quot; role=&quot;presentation&quot; style=&quot;left: 462.067px; top: 1210.28px; font-size: 21.5191px; font-family: sans-serif;&quot;&gt; &lt;/span&gt;&lt;span dir=&quot;ltr&quot; role=&quot;presentation&quot; style=&quot;left: 468.912px; top: 1210.28px; font-size: 21.5191px; font-family: sans-serif;&quot;&gt;w&lt;/span&gt;&lt;span dir=&quot;ltr&quot; role=&quot;presentation&quot; style=&quot;left: 487.44px; top: 1210.28px; font-size: 21.5191px; font-family: sans-serif; transform: scaleX(1.04621);&quot;&gt;ord or&lt;/span&gt;&lt;span dir=&quot;ltr&quot; role=&quot;presentation&quot; style=&quot;left: 554.537px; top: 1210.28px; font-size: 21.5191px; font-family: sans-serif;&quot;&gt; &lt;/span&gt;&lt;span dir=&quot;ltr&quot; role=&quot;presentation&quot; style=&quot;left: 561.379px; top: 1210.28px; font-size: 21.5191px; font-family: sans-serif;&quot;&gt;W&lt;/span&gt;&lt;span dir=&quot;ltr&quot; role=&quot;presentation&quot; style=&quot;left: 585.545px; top: 1210.28px; font-size: 21.5191px; font-family: sans-serif; transform: scaleX(1.05486);&quot;&gt;ORD&lt;/span&gt;&lt;/span&gt;&lt;/div&gt;&lt;div&gt;&lt;span id=&quot;page137R_mcid0&quot; class=&quot;markedContent&quot;&gt;&lt;/span&gt;&lt;/div&gt;&lt;span id=&quot;page137R_mcid0&quot; class=&quot;markedContent&quot;&gt;&lt;span dir=&quot;ltr&quot; role=&quot;presentation&quot; style=&quot;left: 255.446px; top: 1255.47px; font-size: 21.5191px; font-family: sans-serif;&quot;&gt;•&lt;/span&gt;&lt;span dir=&quot;ltr&quot; role=&quot;presentation&quot; style=&quot;left: 268.143px; top: 1255.47px; font-size: 21.5191px; font-family: sans-serif;&quot;&gt; &lt;/span&gt;&lt;span dir=&quot;ltr&quot; role=&quot;presentation&quot; style=&quot;left: 280.099px; top: 1258.77px; font-size: 17.2154px; font-family: monospace;&quot;&gt;b&lt;/span&gt;&lt;span dir=&quot;ltr&quot; role=&quot;presentation&quot; style=&quot;left: 290.462px; top: 1255.47px; font-size: 21.5191px; font-family: sans-serif;&quot;&gt;,&lt;/span&gt;&lt;span dir=&quot;ltr&quot; role=&quot;presentation&quot; style=&quot;left: 297.305px; top: 1258.77px; font-size: 17.2154px; font-family: monospace;&quot;&gt;B&lt;/span&gt;&lt;span dir=&quot;ltr&quot; role=&quot;presentation&quot; style=&quot;left: 307.669px; top: 1258.77px; font-size: 17.2154px; font-family: monospace;&quot;&gt; &lt;/span&gt;&lt;span dir=&quot;ltr&quot; role=&quot;presentation&quot; style=&quot;left: 314.51px; top: 1255.47px; font-size: 21.5191px; font-family: sans-serif; transform: scaleX(1.02785);&quot;&gt;- start of previous word or WORD (start of word&lt;/span&gt;&lt;span dir=&quot;ltr&quot; role=&quot;presentation&quot; style=&quot;left: 837.533px; top: 1255.47px; font-size: 21.5191px; font-family: sans-serif;&quot;&gt; &lt;/span&gt;&lt;span dir=&quot;ltr&quot; role=&quot;presentation&quot; style=&quot;left: 844.378px; top: 1255.47px; font-size: 21.5191px; font-family: sans-serif;&quot;&gt;b&lt;/span&gt;&lt;span dir=&quot;ltr&quot; role=&quot;presentation&quot; style=&quot;left: 859.418px; top: 1255.47px; font-size: 21.5191px; font-family: sans-serif; transform: scaleX(1.01731);&quot;&gt;efore)&lt;/span&gt;&lt;br role=&quot;presentation&quot;&gt;&lt;/span&gt;&lt;div&gt;&lt;span id=&quot;page137R_mcid0&quot; class=&quot;markedContent&quot;&gt;&lt;span dir=&quot;ltr&quot; role=&quot;presentation&quot; style=&quot;left: 255.446px; top: 1300.66px; font-size: 21.5191px; font-family: sans-serif;&quot;&gt;•&lt;/span&gt;&lt;span dir=&quot;ltr&quot; role=&quot;presentation&quot; style=&quot;left: 268.143px; top: 1300.66px; font-size: 21.5191px; font-family: sans-serif;&quot;&gt; &lt;/span&gt;&lt;span dir=&quot;ltr&quot; role=&quot;presentation&quot; style=&quot;left: 280.099px; top: 1303.96px; font-size: 17.2154px; font-family: monospace;&quot;&gt;e&lt;/span&gt;&lt;span dir=&quot;ltr&quot; role=&quot;presentation&quot; style=&quot;left: 290.462px; top: 1300.66px; font-size: 21.5191px; font-family: sans-serif;&quot;&gt;,&lt;/span&gt;&lt;span dir=&quot;ltr&quot; role=&quot;presentation&quot; style=&quot;left: 297.305px; top: 1303.96px; font-size: 17.2154px; font-family: monospace;&quot;&gt;E&lt;/span&gt;&lt;span dir=&quot;ltr&quot; role=&quot;presentation&quot; style=&quot;left: 307.669px; top: 1303.96px; font-size: 17.2154px; font-family: monospace;&quot;&gt; &lt;/span&gt;&lt;span dir=&quot;ltr&quot; role=&quot;presentation&quot; style=&quot;left: 314.51px; top: 1300.66px; font-size: 21.5191px; font-family: sans-serif;&quot;&gt;-&lt;/span&gt;&lt;span dir=&quot;ltr&quot; role=&quot;presentation&quot; style=&quot;left: 321.784px; top: 1300.66px; font-size: 21.5191px; font-family: sans-serif;&quot;&gt; &lt;/span&gt;&lt;span dir=&quot;ltr&quot; role=&quot;presentation&quot; style=&quot;left: 328.627px; top: 1300.66px; font-size: 21.5191px; font-family: sans-serif;&quot;&gt;e&lt;/span&gt;&lt;span dir=&quot;ltr&quot; role=&quot;presentation&quot; style=&quot;left: 342.314px; top: 1300.66px; font-size: 21.5191px; font-family: sans-serif; transform: scaleX(1.03572);&quot;&gt;nd of word or WORD&lt;/span&gt;&lt;br&gt;&lt;/span&gt;&lt;/div&gt;&lt;div style=&quot;font-size: 16px;&quot;&gt;&lt;span id=&quot;page137R_mcid0&quot; class=&quot;markedContent&quot;&gt;&lt;span dir=&quot;ltr&quot; role=&quot;presentation&quot; style=&quot;left: 255.446px; top: 1300.66px; font-size: 21.5191px; font-family: sans-serif;&quot;&gt;•&lt;/span&gt;&lt;span dir=&quot;ltr&quot; role=&quot;presentation&quot; style=&quot;left: 268.143px; top: 1300.66px; font-size: 21.5191px; font-family: sans-serif;&quot;&gt; &lt;/span&gt;&lt;span dir=&quot;ltr&quot; role=&quot;presentation&quot; style=&quot;left: 280.099px; top: 1303.96px; font-size: 17.2154px; font-family: monospace;&quot;&gt;&lt;/span&gt;&lt;/span&gt;ge			Backward to the end of word [count] |inclusive|.&lt;br&gt;&lt;span id=&quot;page137R_mcid0&quot; class=&quot;markedContent&quot;&gt;&lt;span dir=&quot;ltr&quot; role=&quot;presentation&quot; style=&quot;left: 255.446px; top: 1300.66px; font-size: 21.5191px; font-family: sans-serif;&quot;&gt;•&lt;/span&gt;&lt;span dir=&quot;ltr&quot; role=&quot;presentation&quot; style=&quot;left: 268.143px; top: 1300.66px; font-size: 21.5191px; font-family: sans-serif;&quot;&gt; &lt;/span&gt;&lt;span dir=&quot;ltr&quot; role=&quot;presentation&quot; style=&quot;left: 280.099px; top: 1303.96px; font-size: 17.2154px; font-family: monospace;&quot;&gt;&lt;/span&gt;&lt;/span&gt;gE			Backward to the end of WORD [count] |inclusive|.&lt;br&gt;&lt;span id=&quot;page137R_mcid0&quot; class=&quot;markedContent&quot;&gt;&lt;/span&gt;&lt;/div&gt;&lt;div&gt;&lt;span id=&quot;page137R_mcid0&quot; class=&quot;markedContent&quot;&gt;&lt;/span&gt;&lt;/div&gt;&lt;span id=&quot;page137R_mcid0&quot; class=&quot;markedContent&quot;&gt;&lt;span dir=&quot;ltr&quot; role=&quot;presentation&quot; style=&quot;left: 255.446px; top: 1345.85px; font-size: 21.5191px; font-family: sans-serif;&quot;&gt;•&lt;/span&gt;&lt;span dir=&quot;ltr&quot; role=&quot;presentation&quot; style=&quot;left: 268.143px; top: 1345.85px; font-size: 21.5191px; font-family: sans-serif;&quot;&gt; &lt;/span&gt;&lt;span dir=&quot;ltr&quot; role=&quot;presentation&quot; style=&quot;left: 280.099px; top: 1349.15px; font-size: 17.2154px; font-family: monospace;&quot;&gt;s&lt;/span&gt;&lt;span dir=&quot;ltr&quot; role=&quot;presentation&quot; style=&quot;left: 290.463px; top: 1349.15px; font-size: 17.2154px; font-family: monospace;&quot;&gt; &lt;/span&gt;&lt;span dir=&quot;ltr&quot; role=&quot;presentation&quot; style=&quot;left: 297.305px; top: 1345.85px; font-size: 21.5191px; font-family: sans-serif;&quot;&gt;-&lt;/span&gt;&lt;span dir=&quot;ltr&quot; role=&quot;presentation&quot; style=&quot;left: 304.578px; top: 1345.85px; font-size: 21.5191px; font-family: sans-serif;&quot;&gt; &lt;/span&gt;&lt;span dir=&quot;ltr&quot; role=&quot;presentation&quot; style=&quot;left: 311.422px; top: 1345.85px; font-size: 21.5191px; font-family: sans-serif;&quot;&gt;s&lt;/span&gt;&lt;span dir=&quot;ltr&quot; role=&quot;presentation&quot; style=&quot;left: 323.537px; top: 1345.85px; font-size: 21.5191px; font-family: sans-serif; transform: scaleX(0.993152);&quot;&gt;entence&lt;/span&gt;&lt;br role=&quot;presentation&quot;&gt;&lt;span dir=&quot;ltr&quot; role=&quot;presentation&quot; style=&quot;left: 255.446px; top: 1391.04px; font-size: 21.5191px; font-family: sans-serif;&quot;&gt;•&lt;/span&gt;&lt;span dir=&quot;ltr&quot; role=&quot;presentation&quot; style=&quot;left: 268.143px; top: 1391.04px; font-size: 21.5191px; font-family: sans-serif;&quot;&gt; &lt;/span&gt;&lt;span dir=&quot;ltr&quot; role=&quot;presentation&quot; style=&quot;left: 280.099px; top: 1394.34px; font-size: 17.2154px; font-family: monospace;&quot;&gt;p&lt;/span&gt;&lt;span dir=&quot;ltr&quot; role=&quot;presentation&quot; style=&quot;left: 290.463px; top: 1394.34px; font-size: 17.2154px; font-family: monospace;&quot;&gt; &lt;/span&gt;&lt;span dir=&quot;ltr&quot; role=&quot;presentation&quot; style=&quot;left: 297.305px; top: 1391.04px; font-size: 21.5191px; font-family: sans-serif;&quot;&gt;-&lt;/span&gt;&lt;span dir=&quot;ltr&quot; role=&quot;presentation&quot; style=&quot;left: 304.578px; top: 1391.04px; font-size: 21.5191px; font-family: sans-serif;&quot;&gt; &lt;/span&gt;&lt;span dir=&quot;ltr&quot; role=&quot;presentation&quot; style=&quot;left: 311.422px; top: 1391.04px; font-size: 21.5191px; font-family: sans-serif;&quot;&gt;p&lt;/span&gt;&lt;span dir=&quot;ltr&quot; role=&quot;presentation&quot; style=&quot;left: 326.462px; top: 1391.04px; font-size: 21.5191px; font-family: sans-serif; transform: scaleX(1.0231);&quot;&gt;aragraph&lt;/span&gt;&lt;br role=&quot;presentation&quot;&gt;&lt;span dir=&quot;ltr&quot; role=&quot;presentation&quot; style=&quot;left: 255.446px; top: 1436.23px; font-size: 21.5191px; font-family: sans-serif;&quot;&gt;•&lt;/span&gt;&lt;span dir=&quot;ltr&quot; role=&quot;presentation&quot; style=&quot;left: 268.143px; top: 1436.23px; font-size: 21.5191px; font-family: sans-serif;&quot;&gt; &lt;/span&gt;&lt;span dir=&quot;ltr&quot; role=&quot;presentation&quot; style=&quot;left: 280.099px; top: 1439.53px; font-size: 17.2154px; font-family: monospace;&quot;&gt;t&lt;/span&gt;&lt;span dir=&quot;ltr&quot; role=&quot;presentation&quot; style=&quot;left: 290.463px; top: 1439.53px; font-size: 17.2154px; font-family: monospace;&quot;&gt; &lt;/span&gt;&lt;span dir=&quot;ltr&quot; role=&quot;presentation&quot; style=&quot;left: 297.305px; top: 1436.23px; font-size: 21.5191px; font-family: sans-serif;&quot;&gt;-&lt;/span&gt;&lt;span dir=&quot;ltr&quot; role=&quot;presentation&quot; style=&quot;left: 304.578px; top: 1436.23px; font-size: 21.5191px; font-family: sans-serif;&quot;&gt; &lt;/span&gt;&lt;span dir=&quot;ltr&quot; role=&quot;presentation&quot; style=&quot;left: 311.422px; top: 1436.23px; font-size: 21.5191px; font-family: sans-serif;&quot;&gt;t&lt;/span&gt;&lt;span dir=&quot;ltr&quot; role=&quot;presentation&quot; style=&quot;left: 321.362px; top: 1436.23px; font-size: 21.5191px; font-family: sans-serif; transform: scaleX(1.05565);&quot;&gt;ag (in context of HTML/XML)&lt;/span&gt;&lt;br role=&quot;presentation&quot;&gt;&lt;span dir=&quot;ltr&quot; role=&quot;presentation&quot; style=&quot;left: 255.446px; top: 1481.42px; font-size: 21.5191px; font-family: sans-serif;&quot;&gt;•&lt;/span&gt;&lt;span dir=&quot;ltr&quot; role=&quot;presentation&quot; style=&quot;left: 268.143px; top: 1481.42px; font-size: 21.5191px; font-family: sans-serif;&quot;&gt; &lt;/span&gt;&lt;span dir=&quot;ltr&quot; role=&quot;presentation&quot; style=&quot;left: 280.099px; top: 1484.72px; font-size: 17.2154px; font-family: monospace;&quot;&gt;b&lt;/span&gt;&lt;span dir=&quot;ltr&quot; role=&quot;presentation&quot; style=&quot;left: 290.463px; top: 1484.72px; font-size: 17.2154px; font-family: monospace;&quot;&gt; &lt;/span&gt;&lt;span dir=&quot;ltr&quot; role=&quot;presentation&quot; style=&quot;left: 297.305px; top: 1481.42px; font-size: 21.5191px; font-family: sans-serif;&quot;&gt;-&lt;/span&gt;&lt;span dir=&quot;ltr&quot; role=&quot;presentation&quot; style=&quot;left: 304.578px; top: 1481.42px; font-size: 21.5191px; font-family: sans-serif;&quot;&gt; &lt;/span&gt;&lt;span dir=&quot;ltr&quot; role=&quot;presentation&quot; style=&quot;left: 311.422px; top: 1481.42px; font-size: 21.5191px; font-family: sans-serif;&quot;&gt;b&lt;/span&gt;&lt;span dir=&quot;ltr&quot; role=&quot;presentation&quot; style=&quot;left: 326.462px; top: 1481.42px; font-size: 21.5191px; font-family: sans-serif; transform: scaleX(1.01663);&quot;&gt;lock (in context of programming)&lt;/span&gt;&lt;br role=&quot;presentation&quot;&gt;&lt;/span&gt;&lt;div&gt;&lt;span id=&quot;page137R_mcid0&quot; class=&quot;markedContent&quot;&gt;&lt;span dir=&quot;ltr&quot; role=&quot;presentation&quot; style=&quot;left: 255.446px; top: 1526.61px; font-size: 21.5191px; font-family: sans-serif;&quot;&gt;•&lt;/span&gt;&lt;span dir=&quot;ltr&quot; role=&quot;presentation&quot; style=&quot;left: 268.143px; top: 1526.61px; font-size: 21.5191px; font-family: sans-serif;&quot;&gt; &lt;/span&gt;&lt;span dir=&quot;ltr&quot; role=&quot;presentation&quot; style=&quot;left: 280.099px; top: 1529.91px; font-size: 17.2154px; font-family: monospace;&quot;&gt;h&lt;/span&gt;&lt;span dir=&quot;ltr&quot; role=&quot;presentation&quot; style=&quot;left: 290.462px; top: 1526.61px; font-size: 21.5191px; font-family: sans-serif;&quot;&gt;,&lt;/span&gt;&lt;span dir=&quot;ltr&quot; role=&quot;presentation&quot; style=&quot;left: 297.305px; top: 1529.91px; font-size: 17.2154px; font-family: monospace;&quot;&gt;j&lt;/span&gt;&lt;span dir=&quot;ltr&quot; role=&quot;presentation&quot; style=&quot;left: 307.668px; top: 1526.61px; font-size: 21.5191px; font-family: sans-serif;&quot;&gt;,&lt;/span&gt;&lt;span dir=&quot;ltr&quot; role=&quot;presentation&quot; style=&quot;left: 314.51px; top: 1529.91px; font-size: 17.2154px; font-family: monospace;&quot;&gt;k&lt;/span&gt;&lt;span dir=&quot;ltr&quot; role=&quot;presentation&quot; style=&quot;left: 324.876px; top: 1526.61px; font-size: 21.5191px; font-family: sans-serif;&quot;&gt;,&lt;/span&gt;&lt;span dir=&quot;ltr&quot; role=&quot;presentation&quot; style=&quot;left: 331.718px; top: 1529.91px; font-size: 17.2154px; font-family: monospace;&quot;&gt;l&lt;/span&gt;&lt;span dir=&quot;ltr&quot; role=&quot;presentation&quot; style=&quot;left: 342.082px; top: 1529.91px; font-size: 17.2154px; font-family: monospace;&quot;&gt; &lt;/span&gt;&lt;span dir=&quot;ltr&quot; role=&quot;presentation&quot; style=&quot;left: 348.924px; top: 1526.61px; font-size: 21.5191px; font-family: sans-serif; transform: scaleX(1.02284);&quot;&gt;- left, down, up, right&lt;/span&gt;&lt;/span&gt;&lt;/div&gt;&lt;div&gt;&lt;span id=&quot;page140R_mcid0&quot; class=&quot;markedContent&quot;&gt;&lt;span dir=&quot;ltr&quot; role=&quot;presentation&quot; style=&quot;left: 255.446px; top: 235.512px; font-size: 21.5191px; font-family: sans-serif;&quot;&gt;•&lt;/span&gt;&lt;span dir=&quot;ltr&quot; role=&quot;presentation&quot; style=&quot;left: 268.143px; top: 235.512px; font-size: 21.5191px; font-family: sans-serif;&quot;&gt; &lt;/span&gt;&lt;span dir=&quot;ltr&quot; role=&quot;presentation&quot; style=&quot;left: 280.099px; top: 238.811px; font-size: 17.2154px; font-family: monospace;&quot;&gt;$&lt;/span&gt;&lt;span dir=&quot;ltr&quot; role=&quot;presentation&quot; style=&quot;left: 290.463px; top: 238.811px; font-size: 17.2154px; font-family: monospace;&quot;&gt; &lt;/span&gt;&lt;span dir=&quot;ltr&quot; role=&quot;presentation&quot; style=&quot;left: 297.305px; top: 235.512px; font-size: 21.5191px; font-family: sans-serif; transform: scaleX(1.00864);&quot;&gt;- end of line&lt;/span&gt;&lt;br role=&quot;presentation&quot;&gt;&lt;span dir=&quot;ltr&quot; role=&quot;presentation&quot; style=&quot;left: 255.446px; top: 280.701px; font-size: 21.5191px; font-family: sans-serif;&quot;&gt;•&lt;/span&gt;&lt;span dir=&quot;ltr&quot; role=&quot;presentation&quot; style=&quot;left: 268.143px; top: 280.701px; font-size: 21.5191px; font-family: sans-serif;&quot;&gt; &lt;/span&gt;&lt;span dir=&quot;ltr&quot; role=&quot;presentation&quot; style=&quot;left: 280.099px; top: 284.001px; font-size: 17.2154px; font-family: monospace;&quot;&gt;^&lt;/span&gt;&lt;span dir=&quot;ltr&quot; role=&quot;presentation&quot; style=&quot;left: 290.462px; top: 280.701px; font-size: 21.5191px; font-family: sans-serif;&quot;&gt;,&lt;/span&gt;&lt;span dir=&quot;ltr&quot; role=&quot;presentation&quot; style=&quot;left: 297.305px; top: 280.701px; font-size: 21.5191px; font-family: sans-serif;&quot;&gt; &lt;/span&gt;&lt;span dir=&quot;ltr&quot; role=&quot;presentation&quot; style=&quot;left: 304.147px; top: 284.001px; font-size: 17.2154px; font-family: monospace;&quot;&gt;0&lt;/span&gt;&lt;span dir=&quot;ltr&quot; role=&quot;presentation&quot; style=&quot;left: 314.511px; top: 284.001px; font-size: 17.2154px; font-family: monospace;&quot;&gt; &lt;/span&gt;&lt;span dir=&quot;ltr&quot; role=&quot;presentation&quot; style=&quot;left: 321.355px; top: 280.701px; font-size: 21.5191px; font-family: sans-serif; transform: scaleX(1.01878);&quot;&gt;- start of line&lt;/span&gt;&lt;br role=&quot;presentation&quot;&gt;&lt;span dir=&quot;ltr&quot; role=&quot;presentation&quot; style=&quot;left: 219.612px; top: 325.893px; font-size: 21.5191px; font-family: sans-serif; transform: scaleX(0.999717);&quot;&gt;These can be expanded and give you even more power:&lt;/span&gt;&lt;br role=&quot;presentation&quot;&gt;&lt;span dir=&quot;ltr&quot; role=&quot;presentation&quot; style=&quot;left: 255.446px; top: 371.083px; font-size: 21.5191px; font-family: sans-serif;&quot;&gt;•&lt;/span&gt;&lt;span dir=&quot;ltr&quot; role=&quot;presentation&quot; style=&quot;left: 268.143px; top: 371.083px; font-size: 21.5191px; font-family: sans-serif;&quot;&gt; &lt;/span&gt;&lt;span dir=&quot;ltr&quot; role=&quot;presentation&quot; style=&quot;left: 280.099px; top: 374.382px; font-size: 17.2154px; font-family: monospace; transform: scaleX(0.999713);&quot;&gt;aw&lt;/span&gt;&lt;span dir=&quot;ltr&quot; role=&quot;presentation&quot; style=&quot;left: 300.827px; top: 374.382px; font-size: 17.2154px; font-family: monospace;&quot;&gt; &lt;/span&gt;&lt;span dir=&quot;ltr&quot; role=&quot;presentation&quot; style=&quot;left: 307.668px; top: 371.083px; font-size: 21.5191px; font-family: sans-serif;&quot;&gt;-&lt;/span&gt;&lt;span dir=&quot;ltr&quot; role=&quot;presentation&quot; style=&quot;left: 314.941px; top: 371.083px; font-size: 21.5191px; font-family: sans-serif;&quot;&gt; &lt;/span&gt;&lt;span dir=&quot;ltr&quot; role=&quot;presentation&quot; style=&quot;left: 321.785px; top: 371.083px; font-size: 21.5191px; font-family: sans-serif;&quot;&gt;a&lt;/span&gt;&lt;span dir=&quot;ltr&quot; role=&quot;presentation&quot; style=&quot;left: 335.729px; top: 371.083px; font-size: 21.5191px; font-family: sans-serif;&quot;&gt; &lt;/span&gt;&lt;span dir=&quot;ltr&quot; role=&quot;presentation&quot; style=&quot;left: 342.574px; top: 371.083px; font-size: 21.5191px; font-family: sans-serif; transform: scaleX(0.997254);&quot;&gt;(complete)&lt;/span&gt;&lt;span dir=&quot;ltr&quot; role=&quot;presentation&quot; style=&quot;left: 459.552px; top: 371.083px; font-size: 21.5191px; font-family: sans-serif;&quot;&gt; &lt;/span&gt;&lt;span dir=&quot;ltr&quot; role=&quot;presentation&quot; style=&quot;left: 466.394px; top: 371.083px; font-size: 21.5191px; font-family: sans-serif;&quot;&gt;w&lt;/span&gt;&lt;span dir=&quot;ltr&quot; role=&quot;presentation&quot; style=&quot;left: 484.922px; top: 371.083px; font-size: 21.5191px; font-family: sans-serif; transform: scaleX(1.04902);&quot;&gt;ord&lt;/span&gt;&lt;br role=&quot;presentation&quot;&gt;&lt;span dir=&quot;ltr&quot; role=&quot;presentation&quot; style=&quot;left: 255.446px; top: 416.272px; font-size: 21.5191px; font-family: sans-serif;&quot;&gt;•&lt;/span&gt;&lt;span dir=&quot;ltr&quot; role=&quot;presentation&quot; style=&quot;left: 268.143px; top: 416.272px; font-size: 21.5191px; font-family: sans-serif;&quot;&gt; &lt;/span&gt;&lt;span dir=&quot;ltr&quot; role=&quot;presentation&quot; style=&quot;left: 280.099px; top: 419.572px; font-size: 17.2154px; font-family: monospace; transform: scaleX(0.999713);&quot;&gt;as&lt;/span&gt;&lt;span dir=&quot;ltr&quot; role=&quot;presentation&quot; style=&quot;left: 300.827px; top: 419.572px; font-size: 17.2154px; font-family: monospace;&quot;&gt; &lt;/span&gt;&lt;span dir=&quot;ltr&quot; role=&quot;presentation&quot; style=&quot;left: 307.668px; top: 416.272px; font-size: 21.5191px; font-family: sans-serif;&quot;&gt;-&lt;/span&gt;&lt;span dir=&quot;ltr&quot; role=&quot;presentation&quot; style=&quot;left: 314.941px; top: 416.272px; font-size: 21.5191px; font-family: sans-serif;&quot;&gt; &lt;/span&gt;&lt;span dir=&quot;ltr&quot; role=&quot;presentation&quot; style=&quot;left: 321.785px; top: 416.272px; font-size: 21.5191px; font-family: sans-serif;&quot;&gt;a&lt;/span&gt;&lt;span dir=&quot;ltr&quot; role=&quot;presentation&quot; style=&quot;left: 335.729px; top: 416.272px; font-size: 21.5191px; font-family: sans-serif;&quot;&gt; &lt;/span&gt;&lt;span dir=&quot;ltr&quot; role=&quot;presentation&quot; style=&quot;left: 342.574px; top: 416.272px; font-size: 21.5191px; font-family: sans-serif; transform: scaleX(0.997254);&quot;&gt;(complete)&lt;/span&gt;&lt;span dir=&quot;ltr&quot; role=&quot;presentation&quot; style=&quot;left: 459.552px; top: 416.272px; font-size: 21.5191px; font-family: sans-serif;&quot;&gt; &lt;/span&gt;&lt;span dir=&quot;ltr&quot; role=&quot;presentation&quot; style=&quot;left: 466.394px; top: 416.272px; font-size: 21.5191px; font-family: sans-serif;&quot;&gt;s&lt;/span&gt;&lt;span dir=&quot;ltr&quot; role=&quot;presentation&quot; style=&quot;left: 478.51px; top: 416.272px; font-size: 21.5191px; font-family: sans-serif; transform: scaleX(0.993152);&quot;&gt;entence&lt;/span&gt;&lt;br role=&quot;presentation&quot;&gt;&lt;span dir=&quot;ltr&quot; role=&quot;presentation&quot; style=&quot;left: 255.446px; top: 461.464px; font-size: 21.5191px; font-family: sans-serif;&quot;&gt;•&lt;/span&gt;&lt;span dir=&quot;ltr&quot; role=&quot;presentation&quot; style=&quot;left: 268.143px; top: 461.464px; font-size: 21.5191px; font-family: sans-serif;&quot;&gt; &lt;/span&gt;&lt;span dir=&quot;ltr&quot; role=&quot;presentation&quot; style=&quot;left: 280.099px; top: 464.764px; font-size: 17.2154px; font-family: monospace; transform: scaleX(0.999713);&quot;&gt;ap&lt;/span&gt;&lt;span dir=&quot;ltr&quot; role=&quot;presentation&quot; style=&quot;left: 300.827px; top: 464.764px; font-size: 17.2154px; font-family: monospace;&quot;&gt; &lt;/span&gt;&lt;span dir=&quot;ltr&quot; role=&quot;presentation&quot; style=&quot;left: 307.668px; top: 461.464px; font-size: 21.5191px; font-family: sans-serif;&quot;&gt;-&lt;/span&gt;&lt;span dir=&quot;ltr&quot; role=&quot;presentation&quot; style=&quot;left: 314.941px; top: 461.464px; font-size: 21.5191px; font-family: sans-serif;&quot;&gt; &lt;/span&gt;&lt;span dir=&quot;ltr&quot; role=&quot;presentation&quot; style=&quot;left: 321.785px; top: 461.464px; font-size: 21.5191px; font-family: sans-serif;&quot;&gt;a&lt;/span&gt;&lt;span dir=&quot;ltr&quot; role=&quot;presentation&quot; style=&quot;left: 335.729px; top: 461.464px; font-size: 21.5191px; font-family: sans-serif;&quot;&gt; &lt;/span&gt;&lt;span dir=&quot;ltr&quot; role=&quot;presentation&quot; style=&quot;left: 342.574px; top: 461.464px; font-size: 21.5191px; font-family: sans-serif; transform: scaleX(0.997254);&quot;&gt;(complete)&lt;/span&gt;&lt;span dir=&quot;ltr&quot; role=&quot;presentation&quot; style=&quot;left: 459.552px; top: 461.464px; font-size: 21.5191px; font-family: sans-serif;&quot;&gt; &lt;/span&gt;&lt;span dir=&quot;ltr&quot; role=&quot;presentation&quot; style=&quot;left: 466.394px; top: 461.464px; font-size: 21.5191px; font-family: sans-serif;&quot;&gt;p&lt;/span&gt;&lt;span dir=&quot;ltr&quot; role=&quot;presentation&quot; style=&quot;left: 481.435px; top: 461.464px; font-size: 21.5191px; font-family: sans-serif; transform: scaleX(1.0231);&quot;&gt;aragraph&lt;/span&gt;&lt;br role=&quot;presentation&quot;&gt;&lt;span dir=&quot;ltr&quot; role=&quot;presentation&quot; style=&quot;left: 255.446px; top: 506.654px; font-size: 21.5191px; font-family: sans-serif;&quot;&gt;•&lt;/span&gt;&lt;span dir=&quot;ltr&quot; role=&quot;presentation&quot; style=&quot;left: 268.143px; top: 506.654px; font-size: 21.5191px; font-family: sans-serif;&quot;&gt; &lt;/span&gt;&lt;span dir=&quot;ltr&quot; role=&quot;presentation&quot; style=&quot;left: 280.099px; top: 509.954px; font-size: 17.2154px; font-family: monospace; transform: scaleX(0.999713);&quot;&gt;iw&lt;/span&gt;&lt;span dir=&quot;ltr&quot; role=&quot;presentation&quot; style=&quot;left: 300.827px; top: 509.954px; font-size: 17.2154px; font-family: monospace;&quot;&gt; &lt;/span&gt;&lt;span dir=&quot;ltr&quot; role=&quot;presentation&quot; style=&quot;left: 307.668px; top: 506.654px; font-size: 21.5191px; font-family: sans-serif;&quot;&gt;-&lt;/span&gt;&lt;span dir=&quot;ltr&quot; role=&quot;presentation&quot; style=&quot;left: 314.941px; top: 506.654px; font-size: 21.5191px; font-family: sans-serif;&quot;&gt; &lt;/span&gt;&lt;span dir=&quot;ltr&quot; role=&quot;presentation&quot; style=&quot;left: 321.785px; top: 506.654px; font-size: 21.5191px; font-family: sans-serif;&quot;&gt;i&lt;/span&gt;&lt;span dir=&quot;ltr&quot; role=&quot;presentation&quot; style=&quot;left: 329.962px; top: 506.654px; font-size: 21.5191px; font-family: sans-serif; transform: scaleX(1.02821);&quot;&gt;nner&lt;/span&gt;&lt;span dir=&quot;ltr&quot; role=&quot;presentation&quot; style=&quot;left: 380.704px; top: 506.654px; font-size: 21.5191px; font-family: sans-serif;&quot;&gt; &lt;/span&gt;&lt;span dir=&quot;ltr&quot; role=&quot;presentation&quot; style=&quot;left: 387.547px; top: 506.654px; font-size: 21.5191px; font-family: sans-serif;&quot;&gt;w&lt;/span&gt;&lt;span dir=&quot;ltr&quot; role=&quot;presentation&quot; style=&quot;left: 406.075px; top: 506.654px; font-size: 21.5191px; font-family: sans-serif; transform: scaleX(1.04902);&quot;&gt;ord&lt;/span&gt;&lt;br role=&quot;presentation&quot;&gt;&lt;span dir=&quot;ltr&quot; role=&quot;presentation&quot; style=&quot;left: 255.446px; top: 551.846px; font-size: 21.5191px; font-family: sans-serif;&quot;&gt;•&lt;/span&gt;&lt;span dir=&quot;ltr&quot; role=&quot;presentation&quot; style=&quot;left: 268.143px; top: 551.846px; font-size: 21.5191px; font-family: sans-serif;&quot;&gt; &lt;/span&gt;&lt;span dir=&quot;ltr&quot; role=&quot;presentation&quot; style=&quot;left: 280.099px; top: 555.146px; font-size: 17.2154px; font-family: monospace; transform: scaleX(0.999713);&quot;&gt;is&lt;/span&gt;&lt;span dir=&quot;ltr&quot; role=&quot;presentation&quot; style=&quot;left: 300.827px; top: 555.146px; font-size: 17.2154px; font-family: monospace;&quot;&gt; &lt;/span&gt;&lt;span dir=&quot;ltr&quot; role=&quot;presentation&quot; style=&quot;left: 307.668px; top: 551.846px; font-size: 21.5191px; font-family: sans-serif;&quot;&gt;-&lt;/span&gt;&lt;span dir=&quot;ltr&quot; role=&quot;presentation&quot; style=&quot;left: 314.941px; top: 551.846px; font-size: 21.5191px; font-family: sans-serif;&quot;&gt; &lt;/span&gt;&lt;span dir=&quot;ltr&quot; role=&quot;presentation&quot; style=&quot;left: 321.785px; top: 551.846px; font-size: 21.5191px; font-family: sans-serif;&quot;&gt;i&lt;/span&gt;&lt;span dir=&quot;ltr&quot; role=&quot;presentation&quot; style=&quot;left: 329.962px; top: 551.846px; font-size: 21.5191px; font-family: sans-serif; transform: scaleX(1.02821);&quot;&gt;nner&lt;/span&gt;&lt;span dir=&quot;ltr&quot; role=&quot;presentation&quot; style=&quot;left: 380.704px; top: 551.846px; font-size: 21.5191px; font-family: sans-serif;&quot;&gt; &lt;/span&gt;&lt;span dir=&quot;ltr&quot; role=&quot;presentation&quot; style=&quot;left: 387.547px; top: 551.846px; font-size: 21.5191px; font-family: sans-serif;&quot;&gt;s&lt;/span&gt;&lt;span dir=&quot;ltr&quot; role=&quot;presentation&quot; style=&quot;left: 399.662px; top: 551.846px; font-size: 21.5191px; font-family: sans-serif; transform: scaleX(0.993152);&quot;&gt;entence&lt;/span&gt;&lt;br role=&quot;presentation&quot;&gt;&lt;span dir=&quot;ltr&quot; role=&quot;presentation&quot; style=&quot;left: 255.446px; top: 597.036px; font-size: 21.5191px; font-family: sans-serif;&quot;&gt;•&lt;/span&gt;&lt;span dir=&quot;ltr&quot; role=&quot;presentation&quot; style=&quot;left: 268.143px; top: 597.036px; font-size: 21.5191px; font-family: sans-serif;&quot;&gt; &lt;/span&gt;&lt;span dir=&quot;ltr&quot; role=&quot;presentation&quot; style=&quot;left: 280.099px; top: 600.335px; font-size: 17.2154px; font-family: monospace; transform: scaleX(0.999713);&quot;&gt;ip&lt;/span&gt;&lt;span dir=&quot;ltr&quot; role=&quot;presentation&quot; style=&quot;left: 300.827px; top: 600.335px; font-size: 17.2154px; font-family: monospace;&quot;&gt; &lt;/span&gt;&lt;span dir=&quot;ltr&quot; role=&quot;presentation&quot; style=&quot;left: 307.668px; top: 597.036px; font-size: 21.5191px; font-family: sans-serif;&quot;&gt;-&lt;/span&gt;&lt;span dir=&quot;ltr&quot; role=&quot;presentation&quot; style=&quot;left: 314.941px; top: 597.036px; font-size: 21.5191px; font-family: sans-serif;&quot;&gt; &lt;/span&gt;&lt;span dir=&quot;ltr&quot; role=&quot;presentation&quot; style=&quot;left: 321.785px; top: 597.036px; font-size: 21.5191px; font-family: sans-serif;&quot;&gt;i&lt;/span&gt;&lt;span dir=&quot;ltr&quot; role=&quot;presentation&quot; style=&quot;left: 329.962px; top: 597.036px; font-size: 21.5191px; font-family: sans-serif; transform: scaleX(1.02821);&quot;&gt;nner&lt;/span&gt;&lt;span dir=&quot;ltr&quot; role=&quot;presentation&quot; style=&quot;left: 380.704px; top: 597.036px; font-size: 21.5191px; font-family: sans-serif;&quot;&gt; &lt;/span&gt;&lt;span dir=&quot;ltr&quot; role=&quot;presentation&quot; style=&quot;left: 387.547px; top: 597.036px; font-size: 21.5191px; font-family: sans-serif;&quot;&gt;p&lt;/span&gt;&lt;span dir=&quot;ltr&quot; role=&quot;presentation&quot; style=&quot;left: 402.59px; top: 597.036px; font-size: 21.5191px; font-family: sans-serif; transform: scaleX(1.0231);&quot;&gt;aragraph&lt;/span&gt;&lt;/span&gt;&lt;span id=&quot;page137R_mcid0&quot; class=&quot;markedContent&quot;&gt;&lt;span dir=&quot;ltr&quot; role=&quot;presentation&quot; style=&quot;left: 348.924px; top: 1526.61px; font-size: 21.5191px; font-family: sans-serif; transform: scaleX(1.02284);&quot;&gt;&lt;/span&gt;&lt;/span&gt;&lt;/div&gt;" style="text;html=1;strokeColor=none;fillColor=none;align=left;verticalAlign=top;whiteSpace=wrap;rounded=0;" parent="1" vertex="1">
          <mxGeometry x="290" y="50" width="590" height="540" as="geometry" />
        </mxCell>
        <mxCell id="NnfQQq5t3lgXKnAAZFr9-5" value="&lt;div&gt;&lt;font size=&quot;1&quot;&gt;&lt;span id=&quot;page152R_mcid0&quot; class=&quot;markedContent&quot;&gt;&lt;span dir=&quot;ltr&quot; role=&quot;presentation&quot; style=&quot;left: 220.322px; top: 546.543px; font-size: 23.5397px; font-family: sans-serif; transform: scaleX(1.15636);&quot;&gt;Substitution&lt;/span&gt;&lt;/span&gt;&lt;/font&gt;&lt;span id=&quot;page152R_mcid0&quot; class=&quot;markedContent&quot;&gt;&lt;span dir=&quot;ltr&quot; role=&quot;presentation&quot; style=&quot;left: 255.446px; top: 948.501px; font-size: 21.5191px; font-family: sans-serif;&quot;&gt;•&lt;/span&gt;&lt;span dir=&quot;ltr&quot; role=&quot;presentation&quot; style=&quot;left: 268.143px; top: 948.501px; font-size: 21.5191px; font-family: sans-serif;&quot;&gt; &lt;br&gt;&lt;/span&gt;&lt;/span&gt;&lt;/div&gt;&lt;div&gt;&lt;span id=&quot;page152R_mcid0&quot; class=&quot;markedContent&quot;&gt;&lt;span dir=&quot;ltr&quot; role=&quot;presentation&quot; style=&quot;left: 280.099px; top: 951.801px; font-size: 17.2154px; font-family: monospace; transform: scaleX(0.999713);&quot;&gt;:s/bad/good/g&lt;/span&gt;&lt;span dir=&quot;ltr&quot; role=&quot;presentation&quot; style=&quot;left: 414.827px; top: 951.801px; font-size: 17.2154px; font-family: monospace;&quot;&gt; &lt;/span&gt;&lt;span dir=&quot;ltr&quot; role=&quot;presentation&quot; style=&quot;left: 421.668px; top: 948.501px; font-size: 21.5191px; font-family: sans-serif; transform: scaleX(1.01499);&quot;&gt;- changes all words&lt;/span&gt;&lt;span dir=&quot;ltr&quot; role=&quot;presentation&quot; style=&quot;left: 632.685px; top: 948.501px; font-size: 21.5191px; font-family: sans-serif;&quot;&gt; &lt;/span&gt;&lt;span dir=&quot;ltr&quot; role=&quot;presentation&quot; style=&quot;left: 639.528px; top: 951.801px; font-size: 17.2154px; font-family: monospace; transform: scaleX(0.999713);&quot;&gt;bad&lt;/span&gt;&lt;span dir=&quot;ltr&quot; role=&quot;presentation&quot; style=&quot;left: 670.619px; top: 951.801px; font-size: 17.2154px; font-family: monospace;&quot;&gt; &lt;/span&gt;&lt;span dir=&quot;ltr&quot; role=&quot;presentation&quot; style=&quot;left: 677.462px; top: 948.501px; font-size: 21.5191px; font-family: sans-serif; transform: scaleX(1.00024);&quot;&gt;to&lt;/span&gt;&lt;span dir=&quot;ltr&quot; role=&quot;presentation&quot; style=&quot;left: 699.068px; top: 948.501px; font-size: 21.5191px; font-family: sans-serif;&quot;&gt; &lt;/span&gt;&lt;span dir=&quot;ltr&quot; role=&quot;presentation&quot; style=&quot;left: 705.91px; top: 951.801px; font-size: 17.2154px; font-family: monospace; transform: scaleX(0.999713);&quot;&gt;good&lt;/span&gt;&lt;span dir=&quot;ltr&quot; role=&quot;presentation&quot; style=&quot;left: 747.364px; top: 951.801px; font-size: 17.2154px; font-family: monospace;&quot;&gt; &lt;/span&gt;&lt;span dir=&quot;ltr&quot; role=&quot;presentation&quot; style=&quot;left: 754.207px; top: 948.501px; font-size: 21.5191px; font-family: sans-serif; transform: scaleX(1.03413);&quot;&gt;in the current line.&lt;/span&gt;&lt;br role=&quot;presentation&quot;&gt;&lt;span dir=&quot;ltr&quot; role=&quot;presentation&quot; style=&quot;left: 255.446px; top: 993.693px; font-size: 21.5191px; font-family: sans-serif;&quot;&gt;•&lt;/span&gt;&lt;span dir=&quot;ltr&quot; role=&quot;presentation&quot; style=&quot;left: 268.143px; top: 993.693px; font-size: 21.5191px; font-family: sans-serif;&quot;&gt; &lt;/span&gt;&lt;span dir=&quot;ltr&quot; role=&quot;presentation&quot; style=&quot;left: 280.099px; top: 996.993px; font-size: 17.2154px; font-family: monospace; transform: scaleX(0.999713);&quot;&gt;:6,11s/bad/good/g&lt;/span&gt;&lt;span dir=&quot;ltr&quot; role=&quot;presentation&quot; style=&quot;left: 456.282px; top: 996.993px; font-size: 17.2154px; font-family: monospace;&quot;&gt; &lt;/span&gt;&lt;span dir=&quot;ltr&quot; role=&quot;presentation&quot; style=&quot;left: 463.123px; top: 993.693px; font-size: 21.5191px; font-family: sans-serif; transform: scaleX(1.00646);&quot;&gt;- makes the same change, but in lines 6 to 11&lt;/span&gt;&lt;br role=&quot;presentation&quot;&gt;&lt;span dir=&quot;ltr&quot; role=&quot;presentation&quot; style=&quot;left: 255.446px; top: 1038.88px; font-size: 21.5191px; font-family: sans-serif;&quot;&gt;•&lt;/span&gt;&lt;span dir=&quot;ltr&quot; role=&quot;presentation&quot; style=&quot;left: 268.143px; top: 1038.88px; font-size: 21.5191px; font-family: sans-serif;&quot;&gt; &lt;/span&gt;&lt;span dir=&quot;ltr&quot; role=&quot;presentation&quot; style=&quot;left: 280.099px; top: 1042.18px; font-size: 17.2154px; font-family: monospace; transform: scaleX(0.999713);&quot;&gt;:%s/bad/good/g&lt;/span&gt;&lt;span dir=&quot;ltr&quot; role=&quot;presentation&quot; style=&quot;left: 425.191px; top: 1042.18px; font-size: 17.2154px; font-family: monospace;&quot;&gt; &lt;/span&gt;&lt;span dir=&quot;ltr&quot; role=&quot;presentation&quot; style=&quot;left: 432.031px; top: 1038.88px; font-size: 21.5191px; font-family: sans-serif; transform: scaleX(1.00531);&quot;&gt;- makes the same change in entire file&lt;/span&gt;&lt;/span&gt;&lt;/div&gt;&lt;div&gt;&lt;span id=&quot;page155R_mcid0&quot; class=&quot;markedContent&quot;&gt;&lt;span dir=&quot;ltr&quot; role=&quot;presentation&quot; style=&quot;left: 255.446px; top: 1190.38px; font-size: 21.5191px; font-family: sans-serif;&quot;&gt;•&lt;/span&gt;&lt;span dir=&quot;ltr&quot; role=&quot;presentation&quot; style=&quot;left: 268.143px; top: 1190.38px; font-size: 21.5191px; font-family: sans-serif;&quot;&gt; &lt;/span&gt;&lt;span dir=&quot;ltr&quot; role=&quot;presentation&quot; style=&quot;left: 280.099px; top: 1193.68px; font-size: 17.2154px; font-family: monospace;&quot;&gt;c&lt;/span&gt;&lt;span dir=&quot;ltr&quot; role=&quot;presentation&quot; style=&quot;left: 290.463px; top: 1193.68px; font-size: 17.2154px; font-family: monospace;&quot;&gt; &lt;/span&gt;&lt;span dir=&quot;ltr&quot; role=&quot;presentation&quot; style=&quot;left: 297.305px; top: 1190.38px; font-size: 21.5191px; font-family: sans-serif; transform: scaleX(0.986788);&quot;&gt;- to&lt;/span&gt;&lt;span dir=&quot;ltr&quot; role=&quot;presentation&quot; style=&quot;left: 333.027px; top: 1190.38px; font-size: 21.5191px; font-family: sans-serif;&quot;&gt; &lt;/span&gt;&lt;span dir=&quot;ltr&quot; role=&quot;presentation&quot; style=&quot;left: 339.869px; top: 1190.38px; font-size: 21.5191px; font-family: sans-serif;&quot;&gt;c&lt;/span&gt;&lt;span dir=&quot;ltr&quot; role=&quot;presentation&quot; style=&quot;left: 352.975px; top: 1190.38px; font-size: 21.5191px; font-family: sans-serif; transform: scaleX(1.01662);&quot;&gt;onfirm each substitution&lt;/span&gt;&lt;br role=&quot;presentation&quot;&gt;&lt;span dir=&quot;ltr&quot; role=&quot;presentation&quot; style=&quot;left: 255.446px; top: 1220.5px; font-size: 21.5191px; font-family: sans-serif;&quot;&gt;•&lt;/span&gt;&lt;span dir=&quot;ltr&quot; role=&quot;presentation&quot; style=&quot;left: 268.143px; top: 1220.5px; font-size: 21.5191px; font-family: sans-serif;&quot;&gt; &lt;/span&gt;&lt;span dir=&quot;ltr&quot; role=&quot;presentation&quot; style=&quot;left: 280.099px; top: 1223.8px; font-size: 17.2154px; font-family: monospace;&quot;&gt;g&lt;/span&gt;&lt;span dir=&quot;ltr&quot; role=&quot;presentation&quot; style=&quot;left: 290.463px; top: 1223.8px; font-size: 17.2154px; font-family: monospace;&quot;&gt; &lt;/span&gt;&lt;span dir=&quot;ltr&quot; role=&quot;presentation&quot; style=&quot;left: 297.305px; top: 1220.5px; font-size: 21.5191px; font-family: sans-serif; transform: scaleX(1.02197);&quot;&gt;- to replace all occurrences in the line&lt;/span&gt;&lt;br role=&quot;presentation&quot;&gt;&lt;span dir=&quot;ltr&quot; role=&quot;presentation&quot; style=&quot;left: 255.446px; top: 1250.63px; font-size: 21.5191px; font-family: sans-serif;&quot;&gt;•&lt;/span&gt;&lt;span dir=&quot;ltr&quot; role=&quot;presentation&quot; style=&quot;left: 268.143px; top: 1250.63px; font-size: 21.5191px; font-family: sans-serif;&quot;&gt; &lt;/span&gt;&lt;span dir=&quot;ltr&quot; role=&quot;presentation&quot; style=&quot;left: 280.099px; top: 1253.93px; font-size: 17.2154px; font-family: monospace;&quot;&gt;i&lt;/span&gt;&lt;span dir=&quot;ltr&quot; role=&quot;presentation&quot; style=&quot;left: 290.463px; top: 1253.93px; font-size: 17.2154px; font-family: monospace;&quot;&gt; &lt;/span&gt;&lt;span dir=&quot;ltr&quot; role=&quot;presentation&quot; style=&quot;left: 297.305px; top: 1250.63px; font-size: 21.5191px; font-family: sans-serif;&quot;&gt;-&lt;/span&gt;&lt;span dir=&quot;ltr&quot; role=&quot;presentation&quot; style=&quot;left: 304.578px; top: 1250.63px; font-size: 21.5191px; font-family: sans-serif;&quot;&gt; &lt;/span&gt;&lt;span dir=&quot;ltr&quot; role=&quot;presentation&quot; style=&quot;left: 311.422px; top: 1250.63px; font-size: 21.5191px; font-family: sans-serif;&quot;&gt;i&lt;/span&gt;&lt;span dir=&quot;ltr&quot; role=&quot;presentation&quot; style=&quot;left: 319.598px; top: 1250.63px; font-size: 21.5191px; font-family: sans-serif; transform: scaleX(1.01452);&quot;&gt;gnore case for the pattern&lt;/span&gt;&lt;br role=&quot;presentation&quot;&gt;&lt;span dir=&quot;ltr&quot; role=&quot;presentation&quot; style=&quot;left: 255.446px; top: 1280.76px; font-size: 21.5191px; font-family: sans-serif;&quot;&gt;•&lt;/span&gt;&lt;span dir=&quot;ltr&quot; role=&quot;presentation&quot; style=&quot;left: 268.143px; top: 1280.76px; font-size: 21.5191px; font-family: sans-serif;&quot;&gt; &lt;/span&gt;&lt;span dir=&quot;ltr&quot; role=&quot;presentation&quot; style=&quot;left: 280.099px; top: 1284.06px; font-size: 17.2154px; font-family: monospace;&quot;&gt;I&lt;/span&gt;&lt;span dir=&quot;ltr&quot; role=&quot;presentation&quot; style=&quot;left: 290.463px; top: 1284.06px; font-size: 17.2154px; font-family: monospace;&quot;&gt; &lt;/span&gt;&lt;span dir=&quot;ltr&quot; role=&quot;presentation&quot; style=&quot;left: 297.305px; top: 1280.76px; font-size: 21.5191px; font-family: sans-serif; transform: scaleX(1.01338);&quot;&gt;- don’t ignore case for the pattern&lt;/span&gt;&lt;/span&gt;&lt;span id=&quot;page152R_mcid0&quot; class=&quot;markedContent&quot;&gt;&lt;span dir=&quot;ltr&quot; role=&quot;presentation&quot; style=&quot;left: 432.031px; top: 1038.88px; font-size: 21.5191px; font-family: sans-serif; transform: scaleX(1.00531);&quot;&gt;&lt;/span&gt;&lt;/span&gt;&lt;/div&gt;&lt;div&gt;&lt;span id=&quot;page152R_mcid0&quot; class=&quot;markedContent&quot;&gt;&lt;span dir=&quot;ltr&quot; role=&quot;presentation&quot; style=&quot;left: 432.031px; top: 1038.88px; font-size: 21.5191px; font-family: sans-serif; transform: scaleX(1.00531);&quot;&gt;&lt;br&gt;&lt;/span&gt;&lt;/span&gt;&lt;/div&gt;" style="text;html=1;strokeColor=none;fillColor=none;align=left;verticalAlign=top;whiteSpace=wrap;rounded=0;" parent="1" vertex="1">
          <mxGeometry x="880" y="50" width="710" height="280" as="geometry" />
        </mxCell>
      </root>
    </mxGraphModel>
  </diagram>
</mxfile>
